<?xml version="1.0" encoding="utf-8"?>
<!-- Generator: Adobe Illustrator 28.2.0, SVG Export Plug-In . SVG Version: 6.00 Build 0)  -->
<svg version="1.1" id="Layer_1" xmlns="http://www.w3.org/2000/svg" xmlns:xlink="http://www.w3.org/1999/xlink" x="0px" y="0px"
	 viewBox="0 0 200 200" style="enable-background:new 0 0 200 200;" xml:space="preserve">
<style type="text/css">
	.st0{fill:#A5EA78;}
	.st1{fill:#9E83BC;}
	.st2{fill:#BCC2D1;}
	.st3{fill:#FEFEFE;}
	.st4{fill:#E4E4E4;}
</style>
<path class="st0" d="M153.18,60.91c5.11-3.7,10.19-7.45,15.36-11.08c3.15-2.21,6.24-4.53,9.68-6.27c6.2-3.14,14.01-0.42,16.81,6.14
	c0.4,0.93,0.21,2.06,0.97,2.86c0,1.38,0,2.77,0,4.15c-0.95,0.87-0.81,2.2-1.35,3.25c-1.13,2.21-2.8,3.88-4.85,5.22
	c-7.05,4.63-14.02,9.39-20.64,14.61c-5.49,4.32-10.97,8.67-16.01,13.53c-0.26,0.11-0.25,0.26-0.06,0.43l-0.02,0.11
	c-1.45,0.24-2.1,1.53-3.06,2.38c-5.25,4.69-10.18,9.72-14.8,15.04c-4.47,4.65-8.49,9.67-12.38,14.79
	c-4.27,5.63-8.06,11.6-11.82,17.59c-3.63,5.78-12.43,7.32-17.62,2.58c-5.22-4.77-10.25-9.75-15.32-14.68
	c-8.38-8.13-16.75-16.27-25.1-24.45c-3.63-3.56-5.72-7.71-4.15-12.94c2.86-9.53,14.12-11.73,20.81-5.19
	c9.26,9.05,18.55,18.06,27.78,27.14c1.06,1.04,1.52,1.05,2.41-0.2c8.69-12.28,18.71-23.43,29.4-33.99c2-1.98,4.05-3.9,6.07-5.85
	c3.3-2.83,6.59-5.66,9.9-8.47C147.83,65.37,150.51,63.15,153.18,60.91z"/>
<path class="st1" d="M135.2,111.29c4.62-5.32,9.55-10.35,14.8-15.04c0.96-0.86,1.61-2.14,3.06-2.38c0.03,0.63,0.09,1.26,0.09,1.89
	c0,20.72,0,41.44,0,62.16c0,5.53-1.94,10.22-6.13,13.88c-3.17,2.78-6.88,4.39-11.12,4.39c-33.15,0.03-66.3,0.02-99.45,0
	c-7.53,0-14.66-5.61-16.63-12.93c-0.38-1.39-0.67-2.75-0.67-4.21c0.03-33.44,0.01-66.88,0.04-100.32
	c0.01-7.69,7.58-15.55,15.25-16.25c2.93-0.27,5.85-0.26,8.77-0.26c30.67-0.02,61.35-0.02,92.03,0c8.37,0,15.52,5.66,17.38,13.76
	c0.37,1.6,0.38,3.28,0.55,4.93c-2.67,2.23-5.35,4.45-8,6.7c-3.31,2.81-6.6,5.65-9.9,8.47c-0.03-2.66-0.06-5.31-0.09-7.97
	c0.05-4.57-3.27-7.95-7.9-7.95c-27.45-0.01-54.89-0.01-82.34,0c-4.48,0-7.82,3.35-7.82,7.87c-0.01,27.45-0.01,54.9,0,82.34
	c0,4.63,3.26,7.83,7.94,7.87c27.48,0,54.96,0.02,82.45,0c4.31,0,7.68-3.36,7.69-7.63C135.23,137.51,135.21,124.4,135.2,111.29z"/>
<path class="st2" d="M153.09,93.76c-0.18-0.18-0.19-0.32,0.06-0.43C153.13,93.47,153.11,93.62,153.09,93.76z"/>
<path class="st3" d="M135.2,68.12c0.03,2.66,0.06,5.31,0.09,7.97c-2.03,1.95-4.07,3.88-6.07,5.85
	c-10.68,10.57-20.71,21.71-29.4,33.99c-0.89,1.25-1.35,1.24-2.41,0.2C88.18,107.07,78.89,98.05,69.63,89
	c-6.7-6.54-17.95-4.34-20.81,5.19c-1.58,5.23,0.52,9.38,4.15,12.94c8.34,8.17,16.72,16.32,25.1,24.45
	c5.08,4.92,10.1,9.91,15.32,14.68c5.19,4.74,13.99,3.19,17.62-2.58c3.76-5.99,7.55-11.95,11.82-17.59
	c3.89-5.13,7.91-10.15,12.38-14.79c0,13.11,0.03,26.22,0,39.32c-0.01,4.28-3.38,7.63-7.69,7.63c-27.48,0.02-54.96,0-82.45,0
	c0-27.5,0-54.99,0-82.49c0-4.19,3.36-7.65,7.46-7.65C80.09,68.1,107.64,68.11,135.2,68.12z"/>
<path class="st4" d="M135.2,68.12c-27.55,0-55.11-0.01-82.66-0.01c-4.1,0-7.46,3.46-7.46,7.65c-0.01,27.5,0,54.99,0,82.49
	c-4.69-0.04-7.94-3.24-7.94-7.87c-0.01-27.45-0.01-54.9,0-82.34c0-4.52,3.34-7.87,7.82-7.87c27.45,0,54.89-0.01,82.34,0
	C131.92,60.17,135.25,63.54,135.2,68.12z"/>
</svg>
