<?xml version="1.0" encoding="utf-8"?>
<!-- Generator: Adobe Illustrator 28.2.0, SVG Export Plug-In . SVG Version: 6.00 Build 0)  -->
<svg version="1.1" id="Layer_1" xmlns="http://www.w3.org/2000/svg" xmlns:xlink="http://www.w3.org/1999/xlink" x="0px" y="0px"
	 viewBox="0 0 200 200" style="enable-background:new 0 0 200 200;" xml:space="preserve">
<style type="text/css">
	.st0{fill:#FCCEC6;}
	.st1{fill:#050404;}
	.st2{fill:#715884;}
	.st3{fill:#9876B1;}
	.st4{fill:#FC6791;}
</style>
<path class="st0" d="M22.22,128.12c0-3.05,0-6.09,0-9.14c1.75-0.26,2.42-1.31,2.37-3.03c-0.07-2.08-0.07-4.16,0-6.24
	c0.06-1.72-0.6-2.78-2.37-3.02c0-3.05,0-6.1,0.01-9.15c1.82-0.36,2.5-1.49,2.36-3.3c-0.09-1.14-0.06-2.29,0-3.43
	c0.16-3.08,2.21-5.31,5.02-5.48c3.03-0.19,5.47,1.66,5.83,4.8c0.91,7.95,1.65,15.91,2.48,23.87c0.07,0.68-0.07,1.12-0.63,1.63
	c-5.14,4.71-5.2,10.7-0.21,15.6c6.12,6.01,12.25,12.01,18.38,18c0.41,0.4,0.81,0.84,1.29,1.12c0.97,0.56,1.99,0.51,2.79-0.31
	c0.85-0.88,0.94-1.93,0.2-2.94c-0.37-0.51-0.86-0.93-1.32-1.37c-6.03-5.91-12.07-11.83-18.11-17.73c-0.87-0.85-1.69-1.72-2.05-2.92
	c-0.68-2.27,0.19-4.76,2.11-6.04c2.07-1.38,4.7-1.25,6.68,0.52c4.88,4.36,9.84,8.64,14.51,13.22c4.69,4.58,9.74,8.45,16.02,10.56
	c0.54,0.18,1.04,0.47,1.53,0.76c5.74,3.35,9.11,8.35,9.38,14.96c0.3,7.29,0.06,14.61,0.11,21.91c0.01,1.03-0.33,1.27-1.31,1.26
	c-10.48-0.03-20.97-0.04-31.45,0.01c-1.17,0-1.35-0.46-1.33-1.45c0.06-2.29,0.02-4.57,0.02-6.86c0-5.38-1.99-9.84-6.05-13.42
	c-5.52-4.88-10.94-9.88-16.46-14.76c-4.4-3.88-7.02-8.63-7.36-14.52C24.57,129.49,23.92,128.44,22.22,128.12z"/>
<path class="st1" d="M124.85,110.97c-0.31,1.99-1.73,2.22-3.39,2.22c-17.54-0.02-35.07-0.01-52.61-0.01c-4.7,0-9.4,0.01-14.11,0
	c-2.56-0.01-3.23-0.7-3.24-3.29c-0.01-2.86,0.06-5.72-0.01-8.58c-0.21-8.28,3.35-14.37,10.69-18.51c-3.76-3.1-5.78-7.07-5.51-11.96
	c0.21-3.76,1.77-6.96,4.6-9.51c5.33-4.81,13.69-4.66,18.86,0.34c5.98,5.79,5.59,13.16-1.18,21.26c4.19,2.17,7.22,5.45,9.21,9.88
	c1.38-1.35,2.64-2.58,4.22-3.39c-4.69-6.46-4.55-12.48,0.33-16.71c4.29-3.72,10.81-3.58,14.93,0.31c4.56,4.31,4.59,10.49-0.04,16.36
	c1.36,0.78,2.62,1.7,3.66,2.88c0.45,0.51,0.71,0.58,1.05-0.15c1.88-3.98,4.84-6.93,8.9-9.08c-3.93-3.34-5.96-7.46-5.49-12.54
	c0.35-3.76,2.03-6.91,4.95-9.34c5.72-4.77,14.32-4.1,19.22,1.47c4.76,5.41,5.15,14.33-2,20.36c4.96,2.62,8.37,6.52,9.93,11.94
	c0.52,1.79,0.7,3.6,0.7,5.45c-0.01,3.37-0.02,6.73,0,10.1c0.01,1.71-0.81,2.66-2.5,2.69c-3.11,0.05-6.23,0.04-9.34,0
	c-1.38-0.02-2.26-0.71-2.47-2.14c0.07-1.75,1.04-2.46,2.73-2.43c1.71,0.03,3.43-0.07,5.14,0.03c1.35,0.08,1.96-0.23,1.87-1.75
	c-0.13-2.34-0.01-4.7-0.05-7.05c-0.14-7.1-5.66-13.23-12.62-14.04c-7.19-0.84-13.93,3.75-15.67,10.74
	c-0.92,3.69-0.32,7.46-0.44,11.19c-0.03,0.96,0.72,0.87,1.35,0.87c1.84,0.01,3.68,0.04,5.52-0.01
	C123.72,108.56,124.71,109.24,124.85,110.97z M70.37,108.6c4.32,0,8.64-0.03,12.96,0.02c1.11,0.01,1.61-0.26,1.58-1.48
	c-0.08-2.73,0.04-5.46-0.08-8.19c-0.29-6.75-5.93-12.68-12.49-13.24c-7.77-0.66-14.31,3.85-15.83,10.96
	c-0.78,3.64-0.25,7.34-0.38,11.01c-0.04,1.12,0.82,0.91,1.48,0.92C61.86,108.61,66.12,108.6,70.37,108.6z M100,108.6
	c2.99,0,5.97,0.01,8.96-0.01c0.57,0,1.47,0.26,1.44-0.73c-0.09-3.21,0.58-6.5-0.68-9.62c-1.65-4.08-5.17-6.08-10.46-6
	c-5.33,0.07-9.41,3.99-9.64,9.31c-0.08,1.84,0.05,3.69-0.06,5.52c-0.08,1.35,0.52,1.57,1.68,1.55
	C94.15,108.56,97.08,108.6,100,108.6z M129.56,62.54c-5.14-0.02-9.33,4.16-9.33,9.3c0,5.13,4.22,9.33,9.35,9.29
	c5.03-0.04,9.2-4.18,9.27-9.21C138.91,66.84,134.67,62.56,129.56,62.54z M70.48,80.9c5.19-0.01,9.34-4.15,9.3-9.3
	c-0.03-5.07-4.16-9.15-9.25-9.16c-5.17-0.01-9.33,4.14-9.32,9.3C61.22,76.76,65.42,80.91,70.48,80.9z M100.02,74.64
	c-3.68,0-6.52,2.81-6.52,6.47c0,3.61,2.9,6.54,6.5,6.54c3.59,0.01,6.52-2.92,6.52-6.52C106.53,77.47,103.69,74.64,100.02,74.64z"/>
<path class="st1" d="M180.05,110.94c0,6.1-0.01,12.2,0,18.3c0.02,7.8-2.81,14.33-8.64,19.55c-5.64,5.04-11.2,10.16-16.87,15.16
	c-3.06,2.71-4.52,6.03-4.48,10.08c0.03,3.24,0.02,6.48,0,9.72c-0.01,2.24-0.74,3.01-2.94,3.01c-12.46,0.01-24.91,0.02-37.37,0
	c-2.09,0-2.88-0.81-2.89-2.88c-0.01-8.07-0.16-16.14,0.05-24.21c0.24-9.08,4.66-15.73,12.61-20.07c0.11-0.06,0.23-0.11,0.35-0.14
	c6.99-2.21,12.27-6.91,17.42-11.85c3.99-3.83,8.17-7.45,12.24-11.19c1.94-1.78,4.15-2.94,6.83-2.87c1.07,0.03,1.2-0.43,1.29-1.33
	c0.72-7.27,1.51-14.53,2.26-21.79c0.45-4.36,2.5-7.62,6.68-9.12c3.99-1.42,7.65-0.53,10.66,2.51c2.03,2.05,2.79,4.62,2.79,7.47
	C180.05,97.85,180.05,104.4,180.05,110.94z M175.47,110.93c0-6.35,0.01-12.71-0.01-19.06c0-0.82-0.05-1.66-0.24-2.45
	c-0.59-2.46-2.58-4.05-5.05-4.1c-2.6-0.06-4.73,1.45-5.35,3.97c-0.3,1.22-0.39,2.5-0.52,3.76c-0.73,6.88-1.44,13.76-2.15,20.65
	c-0.07,0.67-0.17,1.25,0.49,1.88c5.32,5.06,5.35,10.72,0.12,15.85c-6.07,5.97-12.16,11.92-18.25,17.87c-0.36,0.35-0.72,0.74-1.14,1
	c-1.04,0.64-2.09,0.6-2.94-0.31c-0.84-0.9-0.86-1.95-0.11-2.94c0.31-0.4,0.69-0.74,1.06-1.1c6.17-6.05,12.34-12.1,18.53-18.13
	c1.34-1.31,2.22-2.79,2.07-4.7c-0.17-2.13-1.23-3.74-3.23-4.56c-2.21-0.91-4.22-0.45-5.98,1.15c-4.75,4.32-9.62,8.5-14.21,12.98
	c-4.73,4.62-9.83,8.56-16.18,10.65c-0.3,0.1-0.58,0.26-0.86,0.41c-6.18,3.35-9.75,8.52-10.01,15.55
	c-0.26,7.17-0.05,14.36-0.09,21.53c-0.01,1.07,0.29,1.39,1.38,1.39c10.42-0.04,20.84-0.05,31.26,0.01c1.24,0.01,1.49-0.42,1.45-1.53
	c-0.08-2.09,0.01-4.19-0.03-6.29c-0.11-5.68,1.96-10.33,6.26-14.1c5.54-4.85,10.94-9.87,16.45-14.77c4.96-4.4,7.33-9.9,7.29-16.5
	C175.44,123,175.47,116.97,175.47,110.93z"/>
<path class="st1" d="M22.22,128.12c1.71,0.32,2.35,1.36,2.45,3.08c0.34,5.89,2.97,10.64,7.36,14.52
	c5.52,4.88,10.94,9.88,16.46,14.76c4.06,3.59,6.05,8.04,6.05,13.42c0,2.29,0.04,4.58-0.02,6.86c-0.02,1,0.16,1.46,1.33,1.45
	c10.48-0.04,20.97-0.04,31.45-0.01c0.98,0,1.31-0.24,1.31-1.26c-0.05-7.31,0.19-14.62-0.11-21.91c-0.27-6.62-3.65-11.61-9.38-14.96
	c-0.49-0.29-1-0.58-1.53-0.76c-6.28-2.1-11.34-5.97-16.02-10.56c-4.67-4.57-9.63-8.86-14.51-13.22c-1.98-1.77-4.6-1.9-6.68-0.52
	c-1.93,1.29-2.8,3.77-2.11,6.04c0.36,1.2,1.18,2.07,2.05,2.92c6.04,5.91,12.08,11.82,18.11,17.73c0.45,0.44,0.95,0.87,1.32,1.37
	c0.74,1.01,0.65,2.06-0.2,2.94c-0.8,0.82-1.82,0.88-2.79,0.31c-0.48-0.28-0.88-0.72-1.29-1.12c-6.13-6-12.26-12-18.38-18
	c-4.99-4.9-4.93-10.89,0.21-15.6c0.56-0.51,0.7-0.95,0.63-1.63c-0.83-7.96-1.57-15.92-2.48-23.87c-0.36-3.14-2.8-4.99-5.83-4.8
	c-2.81,0.17-4.86,2.39-5.02,5.48c-0.06,1.14-0.09,2.29,0,3.43c0.14,1.8-0.54,2.94-2.36,3.3c-1.41-0.18-2.15-1.12-2.19-2.41
	c-0.06-2.15-0.22-4.31,0.22-6.46c0.95-4.58,4.94-7.88,9.64-7.92c4.84-0.05,9.12,3.12,9.85,7.82c0.86,5.51,1.29,11.09,1.9,16.64
	c0.26,2.4,0.53,4.8,0.74,7.2c0.06,0.72,0.15,1.18,1.06,1.14c2.99-0.12,5.33,1.29,7.46,3.24c6.37,5.83,12.83,11.58,19.15,17.47
	c2.13,1.99,4.79,2.83,7.33,3.88c6.8,2.79,11.86,7.24,14.42,14.25c0.83,2.28,1.33,4.64,1.33,7.07c0.02,8.13,0.02,16.27,0.01,24.4
	c0,2.09-0.78,2.89-2.86,2.9c-12.52,0.02-25.04,0.02-37.55,0c-1.98,0-2.76-0.8-2.78-2.78c-0.03-3.3-0.03-6.61,0-9.91
	c0.04-4.12-1.46-7.48-4.58-10.23c-5.63-4.95-11.14-10.03-16.74-15.02c-5.06-4.52-7.92-10.12-8.58-16.87
	C19.88,130.1,20.23,128.7,22.22,128.12z"/>
<path class="st1" d="M129.99,28.92c-0.11,7.85-3.32,14.33-8.31,20.04c-4.43,5.07-9.77,9.06-15.38,12.7
	c-3.68,2.39-7.5,2.67-11.27,0.27c-8.47-5.39-16.43-11.35-21.4-20.41c-3.36-6.13-4.66-12.59-2.69-19.45
	c3.64-12.73,17.77-16.89,27.63-8.11c1.16,1.03,1.68,0.99,2.8-0.06c10.79-10.21,24.51-2.16,27.61,8.37
	C129.63,24.47,129.93,26.73,129.99,28.92z M125.46,28.68c0.07-3.98-1.8-8.63-5.11-11.61c-3.12-2.81-6.72-4.07-10.9-2.86
	c-3.05,0.89-5.26,2.95-7.14,5.45c-1.43,1.89-2.78,1.87-4.37,0.14c-0.77-0.84-1.54-1.7-2.4-2.45c-7.52-6.6-17.99-3.27-20.35,6.47
	c-1.38,5.69-0.17,10.98,2.7,15.92c4.74,8.16,12.1,13.58,19.87,18.52c2.15,1.36,4.28,0.8,6.25-0.52c5.2-3.46,10.19-7.18,14.3-11.93
	C122.4,41.1,125.25,35.8,125.46,28.68z"/>
<path class="st2" d="M124.85,110.97c-0.14-1.73-1.14-2.41-2.81-2.38c-1.84,0.04-3.68,0.01-5.52,0.01c-0.63,0-1.38,0.09-1.35-0.87
	c0.12-3.73-0.48-7.51,0.44-11.19c1.75-6.99,8.49-11.58,15.67-10.74c6.96,0.81,12.48,6.94,12.62,14.04c0.05,2.35-0.08,4.7,0.05,7.05
	c0.09,1.52-0.52,1.83-1.87,1.75c-1.71-0.1-3.43,0-5.14-0.03c-1.68-0.03-2.66,0.68-2.73,2.43
	C131.1,110.77,127.98,110.87,124.85,110.97z"/>
<path class="st1" d="M22.21,106.69c1.76,0.25,2.42,1.3,2.37,3.02c-0.07,2.08-0.07,4.16,0,6.24c0.06,1.73-0.62,2.77-2.37,3.03
	c-1.61-0.36-2.28-1.4-2.24-3.02c0.04-2.09,0.04-4.17,0-6.26C19.94,108.09,20.58,107.04,22.21,106.69z"/>
<path class="st2" d="M70.37,108.6c-4.26,0-8.51,0.01-12.77-0.01c-0.66,0-1.52,0.21-1.48-0.92c0.13-3.67-0.4-7.37,0.38-11.01
	c1.52-7.11,8.05-11.62,15.83-10.96c6.56,0.56,12.21,6.5,12.49,13.24c0.12,2.73,0,5.46,0.08,8.19c0.04,1.22-0.47,1.49-1.58,1.48
	C79.01,108.57,74.69,108.6,70.37,108.6z"/>
<path class="st3" d="M100,108.6c-2.92,0-5.84-0.04-8.77,0.02c-1.16,0.02-1.76-0.2-1.68-1.55c0.12-1.83-0.02-3.68,0.06-5.52
	c0.23-5.32,4.32-9.23,9.64-9.31c5.29-0.07,8.81,1.92,10.46,6c1.26,3.12,0.59,6.4,0.68,9.62c0.03,0.99-0.87,0.72-1.44,0.73
	C105.97,108.61,102.98,108.6,100,108.6z"/>
<path class="st0" d="M129.56,62.54c5.11,0.02,9.35,4.3,9.29,9.38c-0.07,5.03-4.23,9.18-9.27,9.21c-5.12,0.04-9.34-4.16-9.35-9.29
	C120.23,66.7,124.42,62.52,129.56,62.54z"/>
<path class="st0" d="M70.48,80.9c-5.06,0.01-9.26-4.14-9.27-9.16c-0.01-5.16,4.15-9.31,9.32-9.3c5.09,0.01,9.21,4.09,9.25,9.16
	C79.82,76.75,75.67,80.89,70.48,80.9z"/>
<path class="st0" d="M100.02,74.64c3.67,0,6.51,2.83,6.5,6.49c-0.01,3.6-2.93,6.53-6.52,6.52c-3.6-0.01-6.5-2.93-6.5-6.54
	C93.51,77.45,96.34,74.63,100.02,74.64z"/>
<path class="st0" d="M175.47,110.93c0,6.04-0.03,12.07,0.01,18.11c0.04,6.61-2.32,12.1-7.29,16.5c-5.51,4.89-10.91,9.91-16.45,14.77
	c-4.3,3.77-6.37,8.41-6.26,14.1c0.04,2.1-0.05,4.19,0.03,6.29c0.04,1.11-0.21,1.54-1.45,1.53c-10.42-0.05-20.84-0.05-31.26-0.01
	c-1.09,0-1.38-0.32-1.38-1.39c0.05-7.18-0.17-14.36,0.09-21.53c0.26-7.03,3.83-12.19,10.01-15.55c0.28-0.15,0.56-0.31,0.86-0.41
	c6.35-2.1,11.45-6.03,16.18-10.65c4.59-4.48,9.46-8.66,14.21-12.98c1.76-1.6,3.77-2.06,5.98-1.15c2,0.82,3.06,2.43,3.23,4.56
	c0.15,1.91-0.72,3.4-2.07,4.7c-6.19,6.03-12.36,12.08-18.53,18.13c-0.36,0.36-0.75,0.69-1.06,1.1c-0.76,0.99-0.73,2.04,0.11,2.94
	c0.85,0.91,1.9,0.95,2.94,0.31c0.42-0.26,0.78-0.65,1.14-1c6.09-5.95,12.17-11.9,18.25-17.87c5.22-5.13,5.2-10.79-0.12-15.85
	c-0.66-0.62-0.56-1.21-0.49-1.88c0.71-6.88,1.42-13.77,2.15-20.65c0.13-1.26,0.22-2.54,0.52-3.76c0.62-2.51,2.75-4.02,5.35-3.97
	c2.47,0.05,4.47,1.64,5.05,4.1c0.19,0.79,0.24,1.63,0.24,2.45C175.48,98.23,175.47,104.58,175.47,110.93z"/>
<path class="st4" d="M125.46,28.68c-0.22,7.12-3.07,12.42-7.15,17.13c-4.11,4.75-9.1,8.47-14.3,11.93
	c-1.97,1.31-4.11,1.88-6.25,0.52C90,53.33,82.64,47.91,77.9,39.74c-2.87-4.94-4.08-10.23-2.7-15.92
	c2.36-9.74,12.83-13.08,20.35-6.47c0.86,0.75,1.62,1.61,2.4,2.45c1.6,1.74,2.95,1.75,4.37-0.14c1.89-2.49,4.09-4.55,7.14-5.45
	c4.17-1.22,7.78,0.05,10.9,2.86C123.66,20.05,125.54,24.71,125.46,28.68z M91.15,33.52c-0.99,0.01-1.73,0.5-2.08,1.39
	c-0.38,0.95-0.19,1.85,0.58,2.61c1.9,1.87,3.76,3.77,5.65,5.65c1.21,1.21,2.46,1.19,3.66-0.01c3.78-3.76,7.54-7.53,11.31-11.3
	c1.1-1.11,1.37-2.38,0.2-3.51c-1.17-1.13-2.42-0.78-3.51,0.32c-2.05,2.07-4.12,4.13-6.19,6.19c-1.17,1.16-2.29,3.15-3.54,3.24
	c-1.43,0.11-2.44-2.07-3.69-3.2C92.83,34.28,92.23,33.51,91.15,33.52z"/>
<path class="st1" d="M91.15,33.52c1.08-0.01,1.68,0.77,2.38,1.4c1.25,1.12,2.26,3.31,3.69,3.2c1.26-0.1,2.38-2.08,3.54-3.24
	c2.07-2.06,4.13-4.12,6.19-6.19c1.09-1.1,2.34-1.45,3.51-0.32c1.17,1.13,0.9,2.4-0.2,3.51c-3.77,3.77-7.53,7.54-11.31,11.3
	c-1.2,1.19-2.45,1.21-3.66,0.01c-1.89-1.88-3.76-3.78-5.65-5.65c-0.77-0.76-0.96-1.66-0.58-2.61
	C89.42,34.02,90.16,33.53,91.15,33.52z"/>
</svg>
