<?xml version="1.0" encoding="utf-8"?>
<!-- Generator: Adobe Illustrator 28.2.0, SVG Export Plug-In . SVG Version: 6.00 Build 0)  -->
<svg version="1.1" id="Layer_1" xmlns="http://www.w3.org/2000/svg" xmlns:xlink="http://www.w3.org/1999/xlink" x="0px" y="0px"
	 viewBox="0 0 200 200" style="enable-background:new 0 0 200 200;" xml:space="preserve">
<style type="text/css">
	.st0{fill:#FCCEC6;}
	.st1{fill:#050404;}
	.st2{fill:#715884;}
	.st3{fill:#9876B1;}
	.st4{fill:#FC6791;}
	.st5{fill:#503A3F;}
	.st6{fill:#E8AB9A;}
	.st7{fill:#FE668A;}
	.st8{fill:#B66759;}
	.st9{fill:#C5305F;}
	.st10{fill:#FEFEFE;}
</style>
<path class="st0" d="M51.74-215.33c0-3.05,0-6.09,0-9.14c1.75-0.26,2.42-1.31,2.37-3.03c-0.07-2.08-0.07-4.16,0-6.24
	c0.06-1.72-0.6-2.78-2.37-3.02c0-3.05,0-6.1,0.01-9.15c1.82-0.36,2.5-1.49,2.36-3.3c-0.09-1.14-0.06-2.29,0-3.43
	c0.16-3.08,2.21-5.31,5.02-5.48c3.03-0.19,5.47,1.66,5.83,4.8c0.91,7.95,1.65,15.91,2.48,23.87c0.07,0.68-0.07,1.12-0.63,1.63
	c-5.14,4.71-5.2,10.7-0.21,15.6c6.12,6.01,12.25,12.01,18.38,18c0.41,0.4,0.81,0.84,1.29,1.12c0.97,0.56,1.99,0.51,2.79-0.31
	c0.85-0.88,0.94-1.93,0.2-2.94c-0.37-0.51-0.86-0.93-1.32-1.37c-6.03-5.91-12.07-11.83-18.11-17.73c-0.87-0.85-1.69-1.72-2.05-2.92
	c-0.68-2.27,0.19-4.76,2.11-6.04c2.07-1.38,4.7-1.25,6.68,0.52c4.88,4.36,9.84,8.64,14.51,13.22c4.69,4.58,9.74,8.45,16.02,10.56
	c0.54,0.18,1.04,0.47,1.53,0.76c5.74,3.35,9.11,8.35,9.38,14.96c0.3,7.29,0.06,14.61,0.11,21.91c0.01,1.03-0.33,1.27-1.31,1.26
	c-10.48-0.03-20.97-0.04-31.45,0.01c-1.17,0-1.35-0.46-1.33-1.45c0.06-2.29,0.02-4.57,0.02-6.86c0-5.38-1.99-9.84-6.05-13.42
	c-5.52-4.88-10.94-9.88-16.46-14.76c-4.4-3.88-7.02-8.63-7.36-14.52C54.1-213.96,53.45-215.01,51.74-215.33z"/>
<path class="st1" d="M154.38-232.48c-0.31,1.99-1.73,2.22-3.39,2.22c-17.54-0.02-35.07-0.01-52.61-0.01c-4.7,0-9.4,0.01-14.11,0
	c-2.56-0.01-3.23-0.7-3.24-3.29c-0.01-2.86,0.06-5.72-0.01-8.58c-0.21-8.28,3.35-14.37,10.69-18.51c-3.76-3.1-5.78-7.07-5.51-11.96
	c0.21-3.76,1.77-6.96,4.6-9.51c5.33-4.81,13.69-4.66,18.86,0.34c5.98,5.79,5.59,13.16-1.18,21.26c4.19,2.17,7.22,5.45,9.21,9.88
	c1.38-1.35,2.64-2.58,4.22-3.39c-4.69-6.46-4.55-12.48,0.33-16.71c4.29-3.72,10.81-3.58,14.93,0.31c4.56,4.31,4.59,10.49-0.04,16.36
	c1.36,0.78,2.62,1.7,3.66,2.88c0.45,0.51,0.71,0.58,1.05-0.15c1.88-3.98,4.84-6.93,8.9-9.08c-3.93-3.34-5.96-7.46-5.49-12.54
	c0.35-3.76,2.03-6.91,4.95-9.34c5.72-4.77,14.32-4.1,19.22,1.47c4.76,5.41,5.15,14.33-2,20.36c4.96,2.62,8.37,6.52,9.93,11.94
	c0.52,1.79,0.7,3.6,0.7,5.45c-0.01,3.37-0.02,6.73,0,10.1c0.01,1.71-0.81,2.66-2.5,2.69c-3.11,0.05-6.23,0.04-9.34,0
	c-1.38-0.02-2.26-0.71-2.47-2.14c0.07-1.75,1.04-2.46,2.73-2.43c1.71,0.03,3.43-0.07,5.14,0.03c1.35,0.08,1.96-0.23,1.87-1.75
	c-0.13-2.34-0.01-4.7-0.05-7.05c-0.14-7.1-5.66-13.23-12.62-14.04c-7.19-0.84-13.93,3.75-15.67,10.74
	c-0.92,3.69-0.32,7.46-0.44,11.19c-0.03,0.96,0.72,0.87,1.35,0.87c1.84,0.01,3.68,0.04,5.52-0.01
	C153.24-234.89,154.24-234.21,154.38-232.48z M99.9-234.85c4.32,0,8.64-0.03,12.96,0.02c1.11,0.01,1.61-0.26,1.58-1.48
	c-0.08-2.73,0.04-5.46-0.08-8.19c-0.29-6.75-5.93-12.68-12.49-13.24c-7.77-0.66-14.31,3.85-15.83,10.96
	c-0.78,3.64-0.25,7.34-0.38,11.01c-0.04,1.12,0.82,0.91,1.48,0.92C91.39-234.84,95.64-234.85,99.9-234.85z M129.52-234.86
	c2.99,0,5.97,0.01,8.96-0.01c0.57,0,1.47,0.26,1.44-0.73c-0.09-3.21,0.58-6.5-0.68-9.62c-1.65-4.08-5.17-6.08-10.46-6
	c-5.33,0.07-9.41,3.99-9.64,9.31c-0.08,1.84,0.05,3.69-0.06,5.52c-0.09,1.35,0.52,1.57,1.68,1.55
	C123.68-234.9,126.6-234.85,129.52-234.86z M159.08-280.91c-5.14-0.02-9.33,4.16-9.33,9.3c0,5.13,4.22,9.33,9.35,9.29
	c5.03-0.04,9.2-4.18,9.27-9.21C168.44-276.61,164.19-280.89,159.08-280.91z M100.01-262.55c5.19-0.01,9.34-4.15,9.3-9.3
	c-0.03-5.07-4.16-9.15-9.25-9.16c-5.17-0.01-9.33,4.14-9.32,9.3C90.74-266.69,94.95-262.54,100.01-262.55z M129.55-268.81
	c-3.68,0-6.52,2.81-6.52,6.47c0,3.61,2.9,6.54,6.5,6.54c3.59,0.01,6.52-2.92,6.52-6.52C136.06-265.98,133.22-268.81,129.55-268.81z"
	/>
<path class="st1" d="M209.58-232.51c0,6.1-0.01,12.2,0,18.3c0.02,7.8-2.81,14.33-8.64,19.55c-5.64,5.04-11.2,10.16-16.87,15.16
	c-3.06,2.71-4.52,6.03-4.48,10.08c0.03,3.24,0.02,6.48,0,9.72c-0.01,2.24-0.74,3.01-2.94,3.01c-12.46,0.01-24.91,0.02-37.37,0
	c-2.09,0-2.88-0.81-2.89-2.88c-0.01-8.07-0.16-16.14,0.05-24.21c0.24-9.08,4.66-15.73,12.61-20.07c0.11-0.06,0.23-0.11,0.35-0.14
	c6.99-2.21,12.27-6.91,17.42-11.85c3.99-3.83,8.17-7.45,12.24-11.19c1.94-1.78,4.15-2.94,6.83-2.87c1.07,0.03,1.2-0.43,1.29-1.33
	c0.72-7.27,1.51-14.53,2.26-21.79c0.45-4.36,2.5-7.62,6.68-9.12c3.99-1.42,7.65-0.54,10.66,2.51c2.03,2.05,2.79,4.62,2.79,7.47
	C209.57-245.6,209.58-239.05,209.58-232.51z M205-232.52c0-6.35,0.01-12.71-0.01-19.06c0-0.82-0.05-1.66-0.24-2.45
	c-0.59-2.46-2.58-4.05-5.05-4.1c-2.6-0.06-4.73,1.45-5.35,3.97c-0.3,1.22-0.39,2.5-0.52,3.76c-0.73,6.88-1.44,13.76-2.15,20.65
	c-0.07,0.67-0.17,1.25,0.49,1.88c5.32,5.06,5.35,10.72,0.12,15.85c-6.07,5.97-12.16,11.92-18.25,17.87c-0.36,0.35-0.72,0.74-1.14,1
	c-1.04,0.64-2.09,0.6-2.94-0.31c-0.84-0.9-0.86-1.95-0.11-2.94c0.31-0.4,0.69-0.74,1.06-1.1c6.17-6.05,12.34-12.1,18.53-18.13
	c1.34-1.31,2.22-2.79,2.07-4.7c-0.17-2.13-1.23-3.74-3.23-4.56c-2.21-0.91-4.22-0.45-5.98,1.15c-4.75,4.32-9.62,8.5-14.21,12.98
	c-4.73,4.62-9.83,8.56-16.18,10.65c-0.3,0.1-0.58,0.26-0.86,0.41c-6.18,3.35-9.75,8.52-10.01,15.55
	c-0.26,7.17-0.05,14.36-0.09,21.53c-0.01,1.07,0.29,1.39,1.38,1.39c10.42-0.04,20.84-0.05,31.26,0.01c1.24,0.01,1.49-0.42,1.45-1.53
	c-0.08-2.09,0.01-4.19-0.03-6.29c-0.11-5.68,1.96-10.33,6.26-14.1c5.54-4.85,10.94-9.87,16.45-14.77c4.96-4.4,7.33-9.9,7.29-16.5
	C204.96-220.45,204.99-226.48,205-232.52z"/>
<path class="st1" d="M51.74-215.33c1.71,0.32,2.35,1.36,2.45,3.08c0.34,5.89,2.97,10.64,7.36,14.52
	c5.52,4.88,10.94,9.88,16.46,14.76c4.06,3.59,6.05,8.04,6.05,13.42c0,2.29,0.04,4.58-0.02,6.86c-0.02,1,0.16,1.46,1.33,1.45
	c10.48-0.04,20.97-0.04,31.45-0.01c0.98,0,1.31-0.24,1.31-1.26c-0.05-7.31,0.19-14.62-0.11-21.91c-0.27-6.62-3.65-11.61-9.38-14.96
	c-0.49-0.29-1-0.58-1.53-0.76c-6.28-2.1-11.34-5.97-16.02-10.56c-4.67-4.57-9.63-8.86-14.51-13.22c-1.98-1.77-4.6-1.9-6.68-0.52
	c-1.93,1.29-2.8,3.77-2.11,6.04c0.36,1.2,1.18,2.07,2.05,2.92c6.04,5.91,12.08,11.82,18.11,17.73c0.45,0.44,0.95,0.87,1.32,1.37
	c0.74,1.01,0.65,2.06-0.2,2.94c-0.8,0.82-1.82,0.88-2.79,0.31c-0.48-0.28-0.88-0.72-1.29-1.12c-6.13-6-12.26-12-18.38-18
	c-4.99-4.9-4.93-10.89,0.21-15.6c0.56-0.51,0.7-0.95,0.63-1.63c-0.83-7.96-1.57-15.92-2.48-23.87c-0.36-3.14-2.8-4.99-5.83-4.8
	c-2.81,0.17-4.86,2.39-5.02,5.48c-0.06,1.14-0.09,2.29,0,3.43c0.14,1.8-0.54,2.94-2.36,3.3c-1.41-0.18-2.15-1.12-2.19-2.41
	c-0.06-2.15-0.22-4.31,0.22-6.46c0.95-4.58,4.94-7.88,9.64-7.92c4.84-0.05,9.12,3.12,9.85,7.82c0.86,5.51,1.29,11.09,1.9,16.64
	c0.26,2.4,0.53,4.8,0.74,7.2c0.06,0.72,0.15,1.18,1.06,1.14c2.99-0.12,5.33,1.29,7.46,3.24c6.37,5.83,12.83,11.58,19.15,17.47
	c2.13,1.99,4.79,2.83,7.33,3.88c6.8,2.79,11.86,7.24,14.42,14.25c0.83,2.28,1.33,4.64,1.33,7.07c0.02,8.13,0.02,16.27,0.01,24.4
	c0,2.09-0.78,2.89-2.86,2.9c-12.52,0.02-25.04,0.02-37.55,0c-1.98,0-2.76-0.8-2.78-2.78c-0.03-3.3-0.03-6.61,0-9.91
	c0.04-4.12-1.46-7.48-4.58-10.23c-5.63-4.95-11.14-10.03-16.74-15.02c-5.06-4.52-7.92-10.12-8.58-16.87
	C49.41-213.36,49.76-214.76,51.74-215.33z"/>
<path class="st1" d="M159.52-314.53c-0.11,7.85-3.32,14.33-8.31,20.04c-4.43,5.07-9.77,9.06-15.38,12.7
	c-3.68,2.39-7.5,2.67-11.27,0.27c-8.47-5.39-16.43-11.35-21.4-20.41c-3.36-6.13-4.66-12.59-2.69-19.45
	c3.64-12.73,17.77-16.89,27.63-8.11c1.16,1.03,1.68,0.99,2.8-0.06c10.79-10.21,24.51-2.16,27.61,8.37
	C159.15-318.98,159.45-316.73,159.52-314.53z M154.99-314.77c0.07-3.98-1.8-8.63-5.11-11.61c-3.12-2.81-6.72-4.07-10.9-2.86
	c-3.05,0.89-5.26,2.95-7.14,5.45c-1.43,1.89-2.78,1.87-4.37,0.14c-0.77-0.84-1.54-1.7-2.4-2.45c-7.52-6.6-17.99-3.27-20.35,6.47
	c-1.38,5.69-0.17,10.98,2.7,15.92c4.74,8.16,12.1,13.58,19.87,18.52c2.15,1.36,4.28,0.8,6.25-0.52c5.2-3.46,10.19-7.18,14.3-11.93
	C151.92-302.35,154.77-307.65,154.99-314.77z"/>
<path class="st2" d="M154.38-232.48c-0.14-1.73-1.14-2.41-2.81-2.38c-1.84,0.04-3.68,0.01-5.52,0.01c-0.63,0-1.38,0.09-1.35-0.87
	c0.12-3.73-0.48-7.51,0.44-11.19c1.75-6.99,8.49-11.58,15.67-10.74c6.96,0.81,12.48,6.94,12.62,14.04c0.05,2.35-0.08,4.7,0.05,7.05
	c0.09,1.52-0.52,1.83-1.87,1.75c-1.71-0.1-3.43,0-5.14-0.03c-1.68-0.03-2.66,0.68-2.73,2.43
	C160.62-232.68,157.5-232.58,154.38-232.48z"/>
<path class="st1" d="M51.74-236.76c1.76,0.25,2.42,1.3,2.37,3.02c-0.07,2.08-0.07,4.16,0,6.24c0.06,1.73-0.62,2.77-2.37,3.03
	c-1.61-0.36-2.28-1.4-2.24-3.02c0.04-2.09,0.04-4.17,0-6.26C49.46-235.36,50.11-236.41,51.74-236.76z"/>
<path class="st2" d="M99.9-234.85c-4.26,0-8.51,0.01-12.77-0.01c-0.66,0-1.52,0.21-1.48-0.92c0.13-3.67-0.4-7.37,0.38-11.01
	c1.52-7.11,8.05-11.62,15.83-10.96c6.56,0.56,12.21,6.5,12.49,13.24c0.12,2.73,0,5.46,0.08,8.19c0.04,1.22-0.47,1.49-1.58,1.48
	C108.53-234.88,104.21-234.85,99.9-234.85z"/>
<path class="st3" d="M129.52-234.85c-2.92,0-5.84-0.04-8.77,0.02c-1.16,0.02-1.76-0.2-1.68-1.55c0.12-1.83-0.02-3.68,0.06-5.52
	c0.23-5.32,4.32-9.23,9.64-9.31c5.29-0.07,8.81,1.92,10.46,6c1.26,3.12,0.59,6.4,0.68,9.62c0.03,0.99-0.87,0.72-1.44,0.73
	C135.5-234.84,132.51-234.86,129.52-234.85z"/>
<path class="st0" d="M159.08-280.91c5.11,0.02,9.35,4.3,9.29,9.38c-0.07,5.03-4.23,9.18-9.27,9.21c-5.12,0.04-9.34-4.16-9.35-9.29
	C149.75-276.75,153.95-280.93,159.08-280.91z"/>
<path class="st0" d="M100.01-262.55c-5.06,0.01-9.26-4.14-9.27-9.16c-0.01-5.16,4.15-9.31,9.32-9.3c5.09,0.01,9.21,4.09,9.25,9.16
	C109.34-266.7,105.2-262.56,100.01-262.55z"/>
<path class="st0" d="M129.55-268.81c3.67,0,6.51,2.83,6.5,6.49c-0.01,3.6-2.93,6.53-6.52,6.52c-3.6-0.01-6.5-2.93-6.5-6.54
	C123.03-266,125.87-268.82,129.55-268.81z"/>
<path class="st0" d="M205-232.52c0,6.04-0.03,12.07,0.01,18.11c0.04,6.61-2.32,12.1-7.29,16.5c-5.51,4.89-10.91,9.91-16.45,14.77
	c-4.3,3.77-6.37,8.41-6.26,14.1c0.04,2.1-0.05,4.19,0.03,6.29c0.04,1.11-0.21,1.54-1.45,1.53c-10.42-0.05-20.84-0.05-31.26-0.01
	c-1.09,0-1.38-0.32-1.38-1.39c0.05-7.18-0.17-14.36,0.09-21.53c0.26-7.03,3.83-12.19,10.01-15.55c0.28-0.15,0.56-0.31,0.86-0.41
	c6.35-2.1,11.45-6.03,16.18-10.65c4.59-4.48,9.46-8.66,14.21-12.98c1.76-1.6,3.77-2.06,5.98-1.15c2,0.82,3.06,2.43,3.23,4.56
	c0.15,1.91-0.72,3.4-2.07,4.7c-6.19,6.03-12.36,12.08-18.53,18.13c-0.36,0.36-0.75,0.69-1.06,1.1c-0.76,0.99-0.73,2.04,0.11,2.94
	c0.85,0.91,1.9,0.95,2.94,0.31c0.42-0.26,0.78-0.65,1.14-1c6.09-5.95,12.17-11.9,18.25-17.87c5.22-5.13,5.2-10.79-0.12-15.85
	c-0.66-0.62-0.56-1.21-0.49-1.88c0.71-6.88,1.42-13.77,2.15-20.65c0.13-1.26,0.22-2.54,0.52-3.76c0.62-2.51,2.75-4.02,5.35-3.97
	c2.47,0.05,4.47,1.64,5.05,4.1c0.19,0.79,0.24,1.63,0.24,2.45C205.01-245.22,205-238.87,205-232.52z"/>
<path class="st4" d="M154.99-314.77c-0.22,7.12-3.07,12.42-7.15,17.13c-4.11,4.75-9.1,8.47-14.3,11.93
	c-1.97,1.31-4.11,1.88-6.25,0.52c-7.77-4.94-15.12-10.36-19.87-18.52c-2.87-4.94-4.08-10.23-2.7-15.92
	c2.36-9.74,12.83-13.08,20.35-6.47c0.86,0.75,1.62,1.61,2.4,2.45c1.6,1.74,2.95,1.75,4.37-0.14c1.89-2.49,4.09-4.55,7.14-5.45
	c4.17-1.22,7.78,0.05,10.9,2.86C153.18-323.4,155.06-318.75,154.99-314.77z M120.68-309.94c-0.99,0.01-1.73,0.5-2.08,1.39
	c-0.38,0.95-0.19,1.85,0.58,2.61c1.9,1.87,3.76,3.77,5.65,5.65c1.21,1.21,2.46,1.19,3.66-0.01c3.78-3.76,7.54-7.53,11.31-11.3
	c1.1-1.11,1.37-2.38,0.2-3.51c-1.17-1.13-2.42-0.78-3.51,0.32c-2.05,2.07-4.12,4.13-6.19,6.19c-1.17,1.16-2.29,3.15-3.54,3.24
	c-1.43,0.11-2.44-2.07-3.69-3.2C122.35-309.17,121.75-309.95,120.68-309.94z"/>
<path class="st1" d="M120.68-309.94c1.08-0.01,1.68,0.77,2.38,1.4c1.25,1.12,2.26,3.31,3.69,3.2c1.26-0.1,2.38-2.08,3.54-3.24
	c2.07-2.06,4.13-4.12,6.19-6.19c1.09-1.1,2.34-1.45,3.51-0.32c1.17,1.13,0.9,2.4-0.2,3.51c-3.77,3.77-7.53,7.54-11.31,11.3
	c-1.2,1.19-2.45,1.21-3.66,0.01c-1.89-1.88-3.76-3.78-5.65-5.65c-0.77-0.76-0.96-1.66-0.58-2.61
	C118.95-309.43,119.68-309.92,120.68-309.94z"/>
<g>
	<path class="st5" d="M191.97,121.41c-1.08,2.72-3.15,3.97-6,4.45c-3.2,0.54-6.33,1.49-9.52,2.13c-1.26,0.25-1.58,0.77-1.57,2.03
		c0.05,12.56,0.03,25.12,0.03,37.67c0,4.19-1.32,5.84-5.41,6.5c-17.44,2.83-34.88,5.63-52.32,8.44c-5.53,0.89-11.07,1.81-16.61,2.63
		c-2.73,0.4-5.37-0.5-8.03-0.92c-20.96-3.32-41.9-6.72-62.85-10.09c-4.35-0.7-5.65-2.21-5.65-6.66c0-12.5-0.03-24.99,0.04-37.49
		c0.01-1.38-0.46-1.87-1.72-2.14c-3.71-0.79-7.41-1.67-11.1-2.55c-3.49-0.83-5.12-4.05-3.56-7.25
		c5.28-10.83,10.63-21.62,15.93-32.45c0.69-1.4,1.84-1.95,3.23-2.34c13.24-3.65,26.47-7.32,39.7-10.98c0.4-0.11,0.79-0.26,1.2-0.4
		c0.05-0.77-0.59-1.16-0.96-1.67c-4.95-6.62-7.91-13.88-7.46-22.32c0.54-10.02,7.38-18.35,16.89-20.23
		c5.17-1.02,10.07,0.1,14.7,2.49c2.86,1.48,5.47,3.33,7.75,5.58c0.87,0.86,1.37,0.92,2.3,0.04c4-3.78,8.55-6.71,14-7.92
		c11.57-2.57,22.25,4.44,24.81,16.22c1.84,8.48-0.4,16.11-4.88,23.26c-1.77,2.82-3.92,5.34-6.47,7.98c2.43,0.48,4.63,0.92,6.83,1.33
		c12.03,2.22,24.06,4.46,36.1,6.6c2.18,0.39,3.49,1.37,4.46,3.39c4.89,10.15,9.91,20.23,14.88,30.34c0.41,0.84,0.83,1.67,1.25,2.51
		C191.97,120.2,191.97,120.8,191.97,121.41z M76.04,75.74L76.04,75.74c0.26,0.65,0.84,1,1.35,1.41c6.01,4.83,12.71,8.45,19.72,11.6
		c2.03,0.92,3.74,0.83,5.67-0.06c3.4-1.56,6.77-3.15,10-5.04c8.28-4.82,15.68-10.64,20.54-19.09c4.27-7.42,5.86-15.22,2.47-23.51
		c-2.53-6.18-8.93-10.76-14.88-10.58c-1.69-0.27-3.36-0.13-5.03,0.22c-5.52,1.17-9.91,4.27-13.88,8.08
		c-2.01,1.93-2.36,1.96-4.39-0.07c-2.32-2.32-4.92-4.26-7.8-5.83c-12.98-7.07-27.22,1.09-27.59,15.87
		c-0.28,11.24,5.29,19.61,13.39,26.67C75.76,75.53,75.9,75.64,76.04,75.74z M172,160.57c0.01-10.02-0.01-20.04,0.08-30.06
		c0.01-1.59-0.75-1.26-1.64-1.05c-14.7,3.41-29.4,6.82-44.11,10.23c-2.79,0.65-4.82-0.15-6.36-2.57c-2.54-4.03-5.03-8.09-7.55-12.12
		c-3.99-6.39-8-12.77-11.96-19.18c-0.77-1.25-1.31-1.16-1.91,0.07c-0.13,0.27-0.32,0.51-0.48,0.76
		c-6.41,10.21-12.81,20.43-19.24,30.62c-1.49,2.37-3.32,3.06-6.03,2.43c-11.02-2.54-22.03-5.1-33.04-7.65
		c-3.69-0.86-7.38-1.71-11.07-2.59c-1.36-0.33-2.04-0.03-1.92,1.56c0.15,2.04,0.12,4.09,0.16,6.14
		c-0.03,10.26-0.07,20.53-0.09,30.79c0,2.4,0.54,3.04,2.8,3.41c3.81,0.62,7.62,1.22,11.43,1.84c18.51,2.97,37.02,5.93,55.52,8.95
		c1.22,0.2,1.56-0.02,1.55-1.28c-0.05-16.42-0.05-32.84-0.06-49.27c0.01-4.77,0.03-9.53,0.04-14.3c0-1.15-0.02-2.29,0.02-3.44
		c0.02-0.83,0.48-1.41,1.31-1.47c0.94-0.06,1.43,0.54,1.54,1.43c0.06,0.48,0.02,0.96,0.02,1.45c0.01,5.07,0.02,10.14,0.03,15.21
		c-0.02,16.85-0.04,33.69-0.08,50.54c0,1.04,0.27,1.38,1.35,1.19c3.14-0.57,6.3-1.06,9.46-1.57c13.75-2.22,27.49-4.45,41.24-6.66
		c5.47-0.88,10.95-1.73,16.43-2.62c2.06-0.33,2.62-1.02,2.62-3.17C172.05,165.64,172.02,163.1,172,160.57z M73.71,136.97
		c1.65,0.18,2.32-0.55,2.89-1.47c1.94-3.12,3.91-6.24,5.86-9.36c4.64-7.41,9.27-14.84,13.95-22.23c0.71-1.11,0.54-1.51-0.73-1.71
		c-1.37-0.22-2.71-0.56-4.07-0.86C70.39,96.6,49.16,91.87,27.94,87.1c-1.17-0.26-1.8-0.1-2.38,1.1
		c-4.89,10.09-9.88,20.14-14.81,30.22c-1.37,2.8-0.88,3.77,2.11,4.46c17.02,3.95,34.04,7.91,51.06,11.86
		C67.33,135.52,70.74,136.29,73.71,136.97z M124.99,137c0.11-0.02,0.58-0.12,1.04-0.22c5.46-1.26,10.92-2.51,16.38-3.77
		c14.74-3.41,29.47-6.81,44.2-10.23c2.2-0.51,2.86-1.75,1.91-3.7c-5.01-10.24-10.05-20.46-15.05-30.7
		c-0.42-0.87-0.84-1.03-1.81-0.81c-13.89,3.03-27.8,5.99-41.7,8.98c-8.78,1.88-17.55,3.79-26.33,5.65
		c-1.37,0.29-1.86,0.62-0.88,2.01c1.52,2.17,2.84,4.49,4.24,6.74c5.05,8.08,10.11,16.16,15.16,24.25
		C122.74,136.12,123.29,137.09,124.99,137z M31.66,85.03c4,0.87,7.46,1.6,10.92,2.38c17.43,3.9,34.85,7.82,52.28,11.69
		c1.92,0.42,3.81,1.29,5.85,0.85c5.23-1.12,10.45-2.29,15.68-3.41c13.76-2.96,27.52-5.87,41.27-8.88c2.82-0.62,5.71-1,8.6-2.05
		c-0.26-0.21-0.34-0.33-0.44-0.35c-12.59-2.33-25.18-4.63-37.76-7c-1.39-0.26-2.45-0.27-3.61,0.71c-6.55,5.54-13.99,9.6-21.88,12.89
		c-1.99,0.83-3.84,0.7-5.76-0.13c-9.6-4.13-18.53-9.29-26-16.73c-0.47-0.47-0.86-0.64-1.57-0.44C56.9,78.03,44.55,81.45,31.66,85.03
		z"/>
	<path class="st5" d="M146.12,34.82c-0.86,0.03-1.35-0.2-1.57-0.75c-0.27-0.68-0.18-1.39,0.48-1.76c3.31-1.83,6.64-3.63,10-5.37
		c0.72-0.37,1.47-0.03,1.77,0.76c0.33,0.87-0.09,1.51-0.87,1.93c-2.86,1.53-5.72,3.06-8.58,4.58
		C146.87,34.48,146.38,34.69,146.12,34.82z"/>
	<path class="st5" d="M142.07,28.09c-1.23-0.06-1.92-1.21-1.23-2.08c1.74-2.22,3.6-4.34,5.45-6.47c0.49-0.57,1.21-0.55,1.8-0.15
		c0.63,0.43,0.82,1.21,0.38,1.75c-1.85,2.28-3.78,4.49-5.72,6.7C142.58,28.04,142.2,28.04,142.07,28.09z"/>
	<path class="st5" d="M134.35,22.87c0.29-2.21,0.57-4.42,0.87-6.62c0.13-0.92,0.55-1.7,1.59-1.6c1.02,0.1,1.34,0.89,1.22,1.86
		c-0.29,2.27-0.55,4.54-0.87,6.81c-0.13,0.93-0.62,1.64-1.67,1.48C134.42,24.63,134.23,23.82,134.35,22.87z"/>
	<path class="st6" d="M73.71,136.97c-2.97-0.68-6.38-1.44-9.79-2.23c-17.02-3.95-34.04-7.9-51.06-11.86c-3-0.7-3.49-1.66-2.11-4.46
		c4.93-10.07,9.92-20.12,14.81-30.22c0.58-1.2,1.21-1.36,2.38-1.1c21.22,4.77,42.45,9.5,63.68,14.25c1.35,0.3,2.7,0.64,4.07,0.86
		c1.27,0.2,1.43,0.6,0.73,1.71c-4.68,7.39-9.31,14.81-13.95,22.23c-1.95,3.12-3.92,6.23-5.86,9.36
		C76.03,136.42,75.36,137.14,73.71,136.97z"/>
	<path class="st6" d="M124.99,137c-1.7,0.08-2.25-0.89-2.83-1.82c-5.05-8.08-10.11-16.16-15.16-24.25
		c-1.41-2.25-2.72-4.57-4.24-6.74c-0.98-1.39-0.49-1.72,0.88-2.01c8.78-1.86,17.55-3.77,26.33-5.65c13.9-2.98,27.81-5.95,41.7-8.98
		c0.97-0.21,1.39-0.05,1.81,0.81c5,10.24,10.04,20.46,15.05,30.7c0.95,1.94,0.29,3.19-1.91,3.7c-14.73,3.42-29.47,6.82-44.2,10.23
		c-5.46,1.26-10.92,2.52-16.38,3.77C125.56,136.89,125.09,136.98,124.99,137z"/>
	<path class="st7" d="M75.62,75.42c-8.1-7.07-13.67-15.44-13.39-26.67c0.37-14.78,14.61-22.94,27.59-15.87
		c2.88,1.57,5.47,3.52,7.8,5.83c2.03,2.02,2.38,2,4.39,0.07c3.97-3.81,8.37-6.91,13.88-8.08c1.67-0.35,3.34-0.49,5.03-0.22
		c1.42,1.11,2.94,2.1,4.23,3.34c5.48,5.21,6.78,11.71,5,18.75c-3.15,12.47-11.09,21.41-21.72,28.19c-3.83,2.44-7.98,3.01-12.46,2.31
		c-3.77-0.59-7.04-2.41-10.53-3.69c-3.16-1.16-6.08-2.9-9.4-3.64c0,0,0,0.01,0,0.01C75.9,75.64,75.76,75.53,75.62,75.42z
		 M78.97,34.8c-0.88-0.07-1.84,0.21-2.78,0.67c-4.18,2.05-6.7,7.51-6.84,11.63c-0.08,2.4,1.15,3.53,3.06,3.27
		c1.31-0.18,2.12-1.08,2.85-2.05c1.85-2.49,3.88-4.75,6.75-6.11c1.05-0.5,1.62-1.39,1.8-2.55C84.25,36.93,82.25,34.85,78.97,34.8z"
		/>
	<path class="st6" d="M98.08,131.6c0.01,16.42,0.01,32.84,0.06,49.27c0,1.26-0.33,1.48-1.55,1.28c-18.5-3.01-37.01-5.97-55.52-8.95
		c-3.81-0.61-7.62-1.21-11.43-1.84c-2.26-0.37-2.81-1.01-2.8-3.41c0.02-10.26,0.06-20.53,0.09-30.79c2.43,0.43,4.85,0.83,7.27,1.28
		c14.76,2.74,29.51,5.47,44.26,8.23c5.5,1.03,9.06,0.73,12.82-5.32C93.38,137.99,95.57,134.68,98.08,131.6z"/>
	<path class="st6" d="M172,160.57c0.02,2.54,0.05,5.07,0.05,7.61c0,2.15-0.56,2.84-2.62,3.17c-5.47,0.88-10.95,1.73-16.43,2.62
		c-13.75,2.22-27.49,4.44-41.24,6.66c-3.15,0.51-6.31,1-9.46,1.57c-1.08,0.2-1.36-0.15-1.35-1.19c0.04-16.85,0.06-33.69,0.08-50.54
		c0.59,0.41,1.2,0.81,1.77,1.24c13.73,10.42,29.02,17.69,45.57,22.34C156.24,156.27,164.13,158.4,172,160.57z"/>
	<path class="st8" d="M172,160.57c-7.88-2.17-15.76-4.3-23.62-6.51c-16.56-4.65-31.84-11.92-45.57-22.34
		c-0.57-0.44-1.18-0.83-1.77-1.24c-0.01-5.07-0.02-10.14-0.03-15.21c0-0.48,0.04-0.97-0.02-1.45c-0.11-0.89-0.6-1.49-1.54-1.43
		c-0.83,0.06-1.28,0.64-1.31,1.47c-0.03,1.15-0.01,2.29-0.02,3.44c-0.01,4.77-0.03,9.53-0.04,14.3c-2.51,3.08-4.7,6.4-6.79,9.76
		c-3.76,6.05-7.33,6.35-12.82,5.32c-14.75-2.77-29.51-5.5-44.26-8.23c-2.42-0.45-4.85-0.86-7.27-1.28c-0.05-2.05-0.02-4.1-0.16-6.14
		c-0.11-1.59,0.56-1.88,1.92-1.56c3.69,0.88,7.38,1.74,11.07,2.59c11.01,2.55,22.02,5.11,33.04,7.65c2.71,0.63,4.54-0.07,6.03-2.43
		c6.43-10.19,12.83-20.41,19.24-30.62c0.16-0.26,0.35-0.49,0.48-0.76c0.6-1.24,1.13-1.32,1.91-0.07
		c3.96,6.41,7.97,12.78,11.96,19.18c2.52,4.04,5.01,8.1,7.55,12.12c1.53,2.43,3.57,3.22,6.36,2.57c14.7-3.41,29.4-6.82,44.11-10.23
		c0.89-0.21,1.66-0.54,1.64,1.05C172,140.53,172.02,150.55,172,160.57z"/>
	<path class="st8" d="M31.66,85.03c12.89-3.58,25.24-7,37.58-10.46c0.71-0.2,1.11-0.03,1.57,0.44c7.47,7.43,16.4,12.6,26,16.73
		c1.92,0.83,3.77,0.96,5.76,0.13c7.89-3.29,15.33-7.35,21.88-12.89c1.16-0.98,2.23-0.97,3.61-0.71c12.58,2.38,25.17,4.68,37.76,7
		c0.1,0.02,0.18,0.13,0.44,0.35c-2.89,1.05-5.79,1.43-8.6,2.05c-13.74,3.01-27.51,5.92-41.27,8.88c-5.23,1.12-10.45,2.29-15.68,3.41
		c-2.04,0.44-3.93-0.42-5.85-0.85c-17.44-3.87-34.86-7.79-52.28-11.69C39.12,86.64,35.65,85.9,31.66,85.03z"/>
	<path class="st9" d="M76.04,75.74c3.31,0.74,6.24,2.49,9.4,3.64c3.49,1.28,6.76,3.1,10.53,3.69c4.48,0.7,8.63,0.13,12.46-2.31
		c10.63-6.78,18.57-15.72,21.72-28.19c1.78-7.04,0.48-13.54-5-18.75c-1.3-1.23-2.82-2.23-4.23-3.34c5.95-0.18,12.35,4.4,14.88,10.58
		c3.4,8.29,1.8,16.09-2.47,23.51c-4.86,8.45-12.26,14.27-20.54,19.09c-3.23,1.88-6.6,3.48-10,5.04c-1.94,0.89-3.64,0.98-5.67,0.06
		c-7-3.16-13.71-6.77-19.72-11.6C76.88,76.74,76.3,76.39,76.04,75.74z"/>
	<path class="st9" d="M75.62,75.42c0.14,0.11,0.29,0.21,0.43,0.32C75.9,75.64,75.76,75.53,75.62,75.42z"/>
	<path class="st10" d="M78.97,34.8c3.28,0.05,5.28,2.13,4.84,4.86c-0.18,1.15-0.75,2.05-1.8,2.55c-2.87,1.36-4.91,3.62-6.75,6.11
		c-0.73,0.98-1.53,1.87-2.85,2.05c-1.92,0.26-3.15-0.87-3.06-3.27c0.14-4.12,2.66-9.58,6.84-11.63
		C77.13,35.01,78.09,34.73,78.97,34.8z"/>
</g>
</svg>
