<?xml version="1.0" encoding="utf-8"?>
<!-- Generator: Adobe Illustrator 28.2.0, SVG Export Plug-In . SVG Version: 6.00 Build 0)  -->
<svg version="1.1" id="Layer_1" xmlns="http://www.w3.org/2000/svg" xmlns:xlink="http://www.w3.org/1999/xlink" x="0px" y="0px"
	 viewBox="0 0 200 200" style="enable-background:new 0 0 200 200;" xml:space="preserve">
<style type="text/css">
	.st0{fill:#FCCEC6;}
	.st1{fill:#050404;}
	.st2{fill:#715884;}
	.st3{fill:#9876B1;}
	.st4{fill:#FC6791;}
	.st5{fill:#503A3F;}
	.st6{fill:#E8AB9A;}
	.st7{fill:#FE668A;}
	.st8{fill:#B66759;}
	.st9{fill:#C5305F;}
	.st10{fill:#FEFEFE;}
	.st11{fill:#040303;}
	.st12{fill:#95DDE8;}
	.st13{fill:#FB796D;}
	.st14{fill:#FCD0A2;}
	.st15{fill:#FCBB84;}
</style>
<path class="st0" d="M51.74-215.33c0-3.05,0-6.09,0-9.14c1.75-0.26,2.42-1.31,2.37-3.03c-0.07-2.08-0.07-4.16,0-6.24
	c0.06-1.72-0.6-2.78-2.37-3.02c0-3.05,0-6.1,0.01-9.15c1.82-0.36,2.5-1.49,2.36-3.3c-0.09-1.14-0.06-2.29,0-3.43
	c0.16-3.08,2.21-5.31,5.02-5.48c3.03-0.19,5.47,1.66,5.83,4.8c0.91,7.95,1.65,15.91,2.48,23.87c0.07,0.68-0.07,1.12-0.63,1.63
	c-5.14,4.71-5.2,10.7-0.21,15.6c6.12,6.01,12.25,12.01,18.38,18c0.41,0.4,0.81,0.84,1.29,1.12c0.97,0.56,1.99,0.51,2.79-0.31
	c0.85-0.88,0.94-1.93,0.2-2.94c-0.37-0.51-0.86-0.93-1.32-1.37c-6.03-5.91-12.07-11.83-18.11-17.73c-0.87-0.85-1.69-1.72-2.05-2.92
	c-0.68-2.27,0.19-4.76,2.11-6.04c2.07-1.38,4.7-1.25,6.68,0.52c4.88,4.36,9.84,8.64,14.51,13.22c4.69,4.58,9.74,8.45,16.02,10.56
	c0.54,0.18,1.04,0.47,1.53,0.76c5.74,3.35,9.11,8.35,9.38,14.96c0.3,7.29,0.06,14.61,0.11,21.91c0.01,1.03-0.33,1.27-1.31,1.26
	c-10.48-0.03-20.97-0.04-31.45,0.01c-1.17,0-1.35-0.46-1.33-1.45c0.06-2.29,0.02-4.57,0.02-6.86c0-5.38-1.99-9.84-6.05-13.42
	c-5.52-4.88-10.94-9.88-16.46-14.76c-4.4-3.88-7.02-8.63-7.36-14.52C54.1-213.96,53.45-215.01,51.74-215.33z"/>
<path class="st1" d="M154.38-232.48c-0.31,1.99-1.73,2.22-3.39,2.22c-17.54-0.02-35.07-0.01-52.61-0.01c-4.7,0-9.4,0.01-14.11,0
	c-2.56-0.01-3.23-0.7-3.24-3.29c-0.01-2.86,0.06-5.72-0.01-8.58c-0.21-8.28,3.35-14.37,10.69-18.51c-3.76-3.1-5.78-7.07-5.51-11.96
	c0.21-3.76,1.77-6.96,4.6-9.51c5.33-4.81,13.69-4.66,18.86,0.34c5.98,5.79,5.59,13.16-1.18,21.26c4.19,2.17,7.22,5.45,9.21,9.88
	c1.38-1.35,2.64-2.58,4.22-3.39c-4.69-6.46-4.55-12.48,0.33-16.71c4.29-3.72,10.81-3.58,14.93,0.31c4.56,4.31,4.59,10.49-0.04,16.36
	c1.36,0.78,2.62,1.7,3.66,2.88c0.45,0.51,0.71,0.58,1.05-0.15c1.88-3.98,4.84-6.93,8.9-9.08c-3.93-3.34-5.96-7.46-5.49-12.54
	c0.35-3.76,2.03-6.91,4.95-9.34c5.72-4.77,14.32-4.1,19.22,1.47c4.76,5.41,5.15,14.33-2,20.36c4.96,2.62,8.37,6.52,9.93,11.94
	c0.52,1.79,0.7,3.6,0.7,5.45c-0.01,3.37-0.02,6.73,0,10.1c0.01,1.71-0.81,2.66-2.5,2.69c-3.11,0.05-6.23,0.04-9.34,0
	c-1.38-0.02-2.26-0.71-2.47-2.14c0.07-1.75,1.04-2.46,2.73-2.43c1.71,0.03,3.43-0.07,5.14,0.03c1.35,0.08,1.96-0.23,1.87-1.75
	c-0.13-2.34-0.01-4.7-0.05-7.05c-0.14-7.1-5.66-13.23-12.62-14.04c-7.19-0.84-13.93,3.75-15.67,10.74
	c-0.92,3.69-0.32,7.46-0.44,11.19c-0.03,0.96,0.72,0.87,1.35,0.87c1.84,0.01,3.68,0.04,5.52-0.01
	C153.24-234.89,154.24-234.21,154.38-232.48z M99.9-234.85c4.32,0,8.64-0.03,12.96,0.02c1.11,0.01,1.61-0.26,1.58-1.48
	c-0.08-2.73,0.04-5.46-0.08-8.19c-0.29-6.75-5.93-12.68-12.49-13.24c-7.77-0.66-14.31,3.85-15.83,10.96
	c-0.78,3.64-0.25,7.34-0.38,11.01c-0.04,1.12,0.82,0.91,1.48,0.92C91.39-234.84,95.64-234.85,99.9-234.85z M129.52-234.86
	c2.99,0,5.97,0.01,8.96-0.01c0.57,0,1.47,0.26,1.44-0.73c-0.09-3.21,0.58-6.5-0.68-9.62c-1.65-4.08-5.17-6.08-10.46-6
	c-5.33,0.07-9.41,3.99-9.64,9.31c-0.08,1.84,0.05,3.69-0.06,5.52c-0.09,1.35,0.52,1.57,1.68,1.55
	C123.68-234.9,126.6-234.85,129.52-234.86z M159.08-280.91c-5.14-0.02-9.33,4.16-9.33,9.3c0,5.13,4.22,9.33,9.35,9.29
	c5.03-0.04,9.2-4.18,9.27-9.21C168.44-276.61,164.19-280.89,159.08-280.91z M100.01-262.55c5.19-0.01,9.34-4.15,9.3-9.3
	c-0.03-5.07-4.16-9.15-9.25-9.16c-5.17-0.01-9.33,4.14-9.32,9.3C90.74-266.69,94.95-262.54,100.01-262.55z M129.55-268.81
	c-3.68,0-6.52,2.81-6.52,6.47c0,3.61,2.9,6.54,6.5,6.54c3.59,0.01,6.52-2.92,6.52-6.52C136.06-265.98,133.22-268.81,129.55-268.81z"
	/>
<path class="st1" d="M209.58-232.51c0,6.1-0.01,12.2,0,18.3c0.02,7.8-2.81,14.33-8.64,19.55c-5.64,5.04-11.2,10.16-16.87,15.16
	c-3.06,2.71-4.52,6.03-4.48,10.08c0.03,3.24,0.02,6.48,0,9.72c-0.01,2.24-0.74,3.01-2.94,3.01c-12.46,0.01-24.91,0.02-37.37,0
	c-2.09,0-2.88-0.81-2.89-2.88c-0.01-8.07-0.16-16.14,0.05-24.21c0.24-9.08,4.66-15.73,12.61-20.07c0.11-0.06,0.23-0.11,0.35-0.14
	c6.99-2.21,12.27-6.91,17.42-11.85c3.99-3.83,8.17-7.45,12.24-11.19c1.94-1.78,4.15-2.94,6.83-2.87c1.07,0.03,1.2-0.43,1.29-1.33
	c0.72-7.27,1.51-14.53,2.26-21.79c0.45-4.36,2.5-7.62,6.68-9.12c3.99-1.42,7.65-0.54,10.66,2.51c2.03,2.05,2.79,4.62,2.79,7.47
	C209.57-245.6,209.58-239.05,209.58-232.51z M205-232.52c0-6.35,0.01-12.71-0.01-19.06c0-0.82-0.05-1.66-0.24-2.45
	c-0.59-2.46-2.58-4.05-5.05-4.1c-2.6-0.06-4.73,1.45-5.35,3.97c-0.3,1.22-0.39,2.5-0.52,3.76c-0.73,6.88-1.44,13.76-2.15,20.65
	c-0.07,0.67-0.17,1.25,0.49,1.88c5.32,5.06,5.35,10.72,0.12,15.85c-6.07,5.97-12.16,11.92-18.25,17.87c-0.36,0.35-0.72,0.74-1.14,1
	c-1.04,0.64-2.09,0.6-2.94-0.31c-0.84-0.9-0.86-1.95-0.11-2.94c0.31-0.4,0.69-0.74,1.06-1.1c6.17-6.05,12.34-12.1,18.53-18.13
	c1.34-1.31,2.22-2.79,2.07-4.7c-0.17-2.13-1.23-3.74-3.23-4.56c-2.21-0.91-4.22-0.45-5.98,1.15c-4.75,4.32-9.62,8.5-14.21,12.98
	c-4.73,4.62-9.83,8.56-16.18,10.65c-0.3,0.1-0.58,0.26-0.86,0.41c-6.18,3.35-9.75,8.52-10.01,15.55
	c-0.26,7.17-0.05,14.36-0.09,21.53c-0.01,1.07,0.29,1.39,1.38,1.39c10.42-0.04,20.84-0.05,31.26,0.01c1.24,0.01,1.49-0.42,1.45-1.53
	c-0.08-2.09,0.01-4.19-0.03-6.29c-0.11-5.68,1.96-10.33,6.26-14.1c5.54-4.85,10.94-9.87,16.45-14.77c4.96-4.4,7.33-9.9,7.29-16.5
	C204.96-220.45,204.99-226.48,205-232.52z"/>
<path class="st1" d="M51.74-215.33c1.71,0.32,2.35,1.36,2.45,3.08c0.34,5.89,2.97,10.64,7.36,14.52
	c5.52,4.88,10.94,9.88,16.46,14.76c4.06,3.59,6.05,8.04,6.05,13.42c0,2.29,0.04,4.58-0.02,6.86c-0.02,1,0.16,1.46,1.33,1.45
	c10.48-0.04,20.97-0.04,31.45-0.01c0.98,0,1.31-0.24,1.31-1.26c-0.05-7.31,0.19-14.62-0.11-21.91c-0.27-6.62-3.65-11.61-9.38-14.96
	c-0.49-0.29-1-0.58-1.53-0.76c-6.28-2.1-11.34-5.97-16.02-10.56c-4.67-4.57-9.63-8.86-14.51-13.22c-1.98-1.77-4.6-1.9-6.68-0.52
	c-1.93,1.29-2.8,3.77-2.11,6.04c0.36,1.2,1.18,2.07,2.05,2.92c6.04,5.91,12.08,11.82,18.11,17.73c0.45,0.44,0.95,0.87,1.32,1.37
	c0.74,1.01,0.65,2.06-0.2,2.94c-0.8,0.82-1.82,0.88-2.79,0.31c-0.48-0.28-0.88-0.72-1.29-1.12c-6.13-6-12.26-12-18.38-18
	c-4.99-4.9-4.93-10.89,0.21-15.6c0.56-0.51,0.7-0.95,0.63-1.63c-0.83-7.96-1.57-15.92-2.48-23.87c-0.36-3.14-2.8-4.99-5.83-4.8
	c-2.81,0.17-4.86,2.39-5.02,5.48c-0.06,1.14-0.09,2.29,0,3.43c0.14,1.8-0.54,2.94-2.36,3.3c-1.41-0.18-2.15-1.12-2.19-2.41
	c-0.06-2.15-0.22-4.31,0.22-6.46c0.95-4.58,4.94-7.88,9.64-7.92c4.84-0.05,9.12,3.12,9.85,7.82c0.86,5.51,1.29,11.09,1.9,16.64
	c0.26,2.4,0.53,4.8,0.74,7.2c0.06,0.72,0.15,1.18,1.06,1.14c2.99-0.12,5.33,1.29,7.46,3.24c6.37,5.83,12.83,11.58,19.15,17.47
	c2.13,1.99,4.79,2.83,7.33,3.88c6.8,2.79,11.86,7.24,14.42,14.25c0.83,2.28,1.33,4.64,1.33,7.07c0.02,8.13,0.02,16.27,0.01,24.4
	c0,2.09-0.78,2.89-2.86,2.9c-12.52,0.02-25.04,0.02-37.55,0c-1.98,0-2.76-0.8-2.78-2.78c-0.03-3.3-0.03-6.61,0-9.91
	c0.04-4.12-1.46-7.48-4.58-10.23c-5.63-4.95-11.14-10.03-16.74-15.02c-5.06-4.52-7.92-10.12-8.58-16.87
	C49.41-213.36,49.76-214.76,51.74-215.33z"/>
<path class="st1" d="M159.52-314.53c-0.11,7.85-3.32,14.33-8.31,20.04c-4.43,5.07-9.77,9.06-15.38,12.7
	c-3.68,2.39-7.5,2.67-11.27,0.27c-8.47-5.39-16.43-11.35-21.4-20.41c-3.36-6.13-4.66-12.59-2.69-19.45
	c3.64-12.73,17.77-16.89,27.63-8.11c1.16,1.03,1.68,0.99,2.8-0.06c10.79-10.21,24.51-2.16,27.61,8.37
	C159.15-318.98,159.45-316.73,159.52-314.53z M154.99-314.77c0.07-3.98-1.8-8.63-5.11-11.61c-3.12-2.81-6.72-4.07-10.9-2.86
	c-3.05,0.89-5.26,2.95-7.14,5.45c-1.43,1.89-2.78,1.87-4.37,0.14c-0.77-0.84-1.54-1.7-2.4-2.45c-7.52-6.6-17.99-3.27-20.35,6.47
	c-1.38,5.69-0.17,10.98,2.7,15.92c4.74,8.16,12.1,13.58,19.87,18.52c2.15,1.36,4.28,0.8,6.25-0.52c5.2-3.46,10.19-7.18,14.3-11.93
	C151.92-302.35,154.77-307.65,154.99-314.77z"/>
<path class="st2" d="M154.38-232.48c-0.14-1.73-1.14-2.41-2.81-2.38c-1.84,0.04-3.68,0.01-5.52,0.01c-0.63,0-1.38,0.09-1.35-0.87
	c0.12-3.73-0.48-7.51,0.44-11.19c1.75-6.99,8.49-11.58,15.67-10.74c6.96,0.81,12.48,6.94,12.62,14.04c0.05,2.35-0.08,4.7,0.05,7.05
	c0.09,1.52-0.52,1.83-1.87,1.75c-1.71-0.1-3.43,0-5.14-0.03c-1.68-0.03-2.66,0.68-2.73,2.43
	C160.62-232.68,157.5-232.58,154.38-232.48z"/>
<path class="st1" d="M51.74-236.76c1.76,0.25,2.42,1.3,2.37,3.02c-0.07,2.08-0.07,4.16,0,6.24c0.06,1.73-0.62,2.77-2.37,3.03
	c-1.61-0.36-2.28-1.4-2.24-3.02c0.04-2.09,0.04-4.17,0-6.26C49.46-235.36,50.11-236.41,51.74-236.76z"/>
<path class="st2" d="M99.9-234.85c-4.26,0-8.51,0.01-12.77-0.01c-0.66,0-1.52,0.21-1.48-0.92c0.13-3.67-0.4-7.37,0.38-11.01
	c1.52-7.11,8.05-11.62,15.83-10.96c6.56,0.56,12.21,6.5,12.49,13.24c0.12,2.73,0,5.46,0.08,8.19c0.04,1.22-0.47,1.49-1.58,1.48
	C108.53-234.88,104.21-234.85,99.9-234.85z"/>
<path class="st3" d="M129.52-234.85c-2.92,0-5.84-0.04-8.77,0.02c-1.16,0.02-1.76-0.2-1.68-1.55c0.12-1.83-0.02-3.68,0.06-5.52
	c0.23-5.32,4.32-9.23,9.64-9.31c5.29-0.07,8.81,1.92,10.46,6c1.26,3.12,0.59,6.4,0.68,9.62c0.03,0.99-0.87,0.72-1.44,0.73
	C135.5-234.84,132.51-234.86,129.52-234.85z"/>
<path class="st0" d="M159.08-280.91c5.11,0.02,9.35,4.3,9.29,9.38c-0.07,5.03-4.23,9.18-9.27,9.21c-5.12,0.04-9.34-4.16-9.35-9.29
	C149.75-276.75,153.95-280.93,159.08-280.91z"/>
<path class="st0" d="M100.01-262.55c-5.06,0.01-9.26-4.14-9.27-9.16c-0.01-5.16,4.15-9.31,9.32-9.3c5.09,0.01,9.21,4.09,9.25,9.16
	C109.34-266.7,105.2-262.56,100.01-262.55z"/>
<path class="st0" d="M129.55-268.81c3.67,0,6.51,2.83,6.5,6.49c-0.01,3.6-2.93,6.53-6.52,6.52c-3.6-0.01-6.5-2.93-6.5-6.54
	C123.03-266,125.87-268.82,129.55-268.81z"/>
<path class="st0" d="M205-232.52c0,6.04-0.03,12.07,0.01,18.11c0.04,6.61-2.32,12.1-7.29,16.5c-5.51,4.89-10.91,9.91-16.45,14.77
	c-4.3,3.77-6.37,8.41-6.26,14.1c0.04,2.1-0.05,4.19,0.03,6.29c0.04,1.11-0.21,1.54-1.45,1.53c-10.42-0.05-20.84-0.05-31.26-0.01
	c-1.09,0-1.38-0.32-1.38-1.39c0.05-7.18-0.17-14.36,0.09-21.53c0.26-7.03,3.83-12.19,10.01-15.55c0.28-0.15,0.56-0.31,0.86-0.41
	c6.35-2.1,11.45-6.03,16.18-10.65c4.59-4.48,9.46-8.66,14.21-12.98c1.76-1.6,3.77-2.06,5.98-1.15c2,0.82,3.06,2.43,3.23,4.56
	c0.15,1.91-0.72,3.4-2.07,4.7c-6.19,6.03-12.36,12.08-18.53,18.13c-0.36,0.36-0.75,0.69-1.06,1.1c-0.76,0.99-0.73,2.04,0.11,2.94
	c0.85,0.91,1.9,0.95,2.94,0.31c0.42-0.26,0.78-0.65,1.14-1c6.09-5.95,12.17-11.9,18.25-17.87c5.22-5.13,5.2-10.79-0.12-15.85
	c-0.66-0.62-0.56-1.21-0.49-1.88c0.71-6.88,1.42-13.77,2.15-20.65c0.13-1.26,0.22-2.54,0.52-3.76c0.62-2.51,2.75-4.02,5.35-3.97
	c2.47,0.05,4.47,1.64,5.05,4.1c0.19,0.79,0.24,1.63,0.24,2.45C205.01-245.22,205-238.87,205-232.52z"/>
<path class="st4" d="M154.99-314.77c-0.22,7.12-3.07,12.42-7.15,17.13c-4.11,4.75-9.1,8.47-14.3,11.93
	c-1.97,1.31-4.11,1.88-6.25,0.52c-7.77-4.94-15.12-10.36-19.87-18.52c-2.87-4.94-4.08-10.23-2.7-15.92
	c2.36-9.74,12.83-13.08,20.35-6.47c0.86,0.75,1.62,1.61,2.4,2.45c1.6,1.74,2.95,1.75,4.37-0.14c1.89-2.49,4.09-4.55,7.14-5.45
	c4.17-1.22,7.78,0.05,10.9,2.86C153.18-323.4,155.06-318.75,154.99-314.77z M120.68-309.94c-0.99,0.01-1.73,0.5-2.08,1.39
	c-0.38,0.95-0.19,1.85,0.58,2.61c1.9,1.87,3.76,3.77,5.65,5.65c1.21,1.21,2.46,1.19,3.66-0.01c3.78-3.76,7.54-7.53,11.31-11.3
	c1.1-1.11,1.37-2.38,0.2-3.51c-1.17-1.13-2.42-0.78-3.51,0.32c-2.05,2.07-4.12,4.13-6.19,6.19c-1.17,1.16-2.29,3.15-3.54,3.24
	c-1.43,0.11-2.44-2.07-3.69-3.2C122.35-309.17,121.75-309.95,120.68-309.94z"/>
<path class="st1" d="M120.68-309.94c1.08-0.01,1.68,0.77,2.38,1.4c1.25,1.12,2.26,3.31,3.69,3.2c1.26-0.1,2.38-2.08,3.54-3.24
	c2.07-2.06,4.13-4.12,6.19-6.19c1.09-1.1,2.34-1.45,3.51-0.32c1.17,1.13,0.9,2.4-0.2,3.51c-3.77,3.77-7.53,7.54-11.31,11.3
	c-1.2,1.19-2.45,1.21-3.66,0.01c-1.89-1.88-3.76-3.78-5.65-5.65c-0.77-0.76-0.96-1.66-0.58-2.61
	C118.95-309.43,119.68-309.92,120.68-309.94z"/>
<g>
	<path class="st5" d="M-105.99,36.05c-1.08,2.72-3.15,3.97-6,4.45c-3.2,0.54-6.33,1.49-9.52,2.13c-1.26,0.25-1.58,0.77-1.57,2.03
		c0.05,12.56,0.03,25.12,0.03,37.67c0,4.19-1.32,5.84-5.41,6.5c-17.44,2.83-34.88,5.63-52.32,8.44c-5.53,0.89-11.07,1.81-16.61,2.63
		c-2.73,0.4-5.37-0.5-8.03-0.92c-20.96-3.32-41.9-6.72-62.85-10.09c-4.35-0.7-5.65-2.21-5.65-6.66c0-12.5-0.03-24.99,0.04-37.49
		c0.01-1.38-0.46-1.87-1.72-2.14c-3.71-0.79-7.41-1.67-11.1-2.55c-3.49-0.83-5.12-4.05-3.56-7.25
		c5.28-10.83,10.63-21.62,15.93-32.45c0.69-1.4,1.84-1.95,3.23-2.34c13.24-3.65,26.47-7.32,39.7-10.98c0.4-0.11,0.79-0.26,1.2-0.4
		c0.05-0.77-0.59-1.16-0.96-1.67c-4.95-6.62-7.91-13.88-7.46-22.32c0.54-10.02,7.38-18.35,16.89-20.23
		c5.17-1.02,10.07,0.1,14.7,2.49c2.86,1.48,5.47,3.33,7.75,5.58c0.87,0.86,1.37,0.92,2.3,0.04c4-3.78,8.55-6.71,14-7.92
		c11.57-2.57,22.25,4.44,24.81,16.22c1.84,8.48-0.4,16.11-4.88,23.26c-1.77,2.82-3.92,5.34-6.47,7.98c2.43,0.48,4.63,0.92,6.83,1.33
		c12.03,2.22,24.06,4.46,36.1,6.6c2.18,0.39,3.49,1.37,4.46,3.39c4.89,10.15,9.91,20.23,14.88,30.34c0.41,0.84,0.83,1.67,1.25,2.51
		C-105.99,34.84-105.99,35.44-105.99,36.05z M-221.91-9.62L-221.91-9.62c0.26,0.65,0.84,1,1.35,1.41
		c6.01,4.83,12.71,8.45,19.72,11.6c2.03,0.92,3.74,0.83,5.67-0.06c3.4-1.56,6.77-3.15,10-5.04c8.28-4.82,15.68-10.64,20.54-19.09
		c4.27-7.42,5.86-15.22,2.47-23.51c-2.53-6.18-8.93-10.76-14.88-10.58c-1.69-0.27-3.36-0.13-5.03,0.22
		c-5.52,1.17-9.91,4.27-13.88,8.08c-2.01,1.93-2.36,1.96-4.39-0.07c-2.32-2.32-4.92-4.26-7.8-5.83
		c-12.98-7.07-27.22,1.09-27.59,15.87c-0.28,11.24,5.29,19.61,13.39,26.67C-222.2-9.83-222.06-9.72-221.91-9.62z M-125.96,75.21
		c0.01-10.02-0.01-20.04,0.08-30.06c0.01-1.59-0.75-1.26-1.64-1.05c-14.7,3.41-29.4,6.82-44.11,10.23
		c-2.79,0.65-4.82-0.15-6.36-2.57c-2.54-4.03-5.03-8.09-7.55-12.12c-3.99-6.39-8-12.77-11.96-19.18c-0.77-1.25-1.31-1.16-1.91,0.07
		c-0.13,0.27-0.32,0.51-0.48,0.76c-6.41,10.21-12.81,20.43-19.24,30.62c-1.49,2.37-3.32,3.06-6.03,2.43
		c-11.02-2.54-22.03-5.1-33.04-7.65c-3.69-0.86-7.38-1.71-11.07-2.59c-1.36-0.33-2.04-0.03-1.92,1.56c0.15,2.04,0.12,4.09,0.16,6.14
		c-0.03,10.26-0.07,20.53-0.09,30.79c0,2.4,0.54,3.04,2.8,3.41c3.81,0.62,7.62,1.22,11.43,1.84c18.51,2.97,37.02,5.93,55.52,8.95
		c1.22,0.2,1.56-0.02,1.55-1.28c-0.05-16.42-0.05-32.84-0.06-49.27c0.01-4.77,0.03-9.53,0.04-14.3c0-1.15-0.02-2.29,0.02-3.44
		c0.02-0.83,0.48-1.41,1.31-1.47c0.94-0.06,1.43,0.54,1.54,1.43c0.06,0.48,0.02,0.96,0.02,1.45c0.01,5.07,0.02,10.14,0.03,15.21
		c-0.02,16.85-0.04,33.69-0.08,50.54c0,1.04,0.27,1.38,1.35,1.19c3.14-0.57,6.3-1.06,9.46-1.57c13.75-2.22,27.49-4.45,41.24-6.66
		c5.47-0.88,10.95-1.73,16.43-2.62c2.06-0.33,2.62-1.02,2.62-3.17C-125.91,80.28-125.94,77.74-125.96,75.21z M-224.25,51.61
		c1.65,0.18,2.32-0.55,2.89-1.47c1.94-3.12,3.91-6.24,5.86-9.36c4.64-7.41,9.27-14.84,13.95-22.23c0.71-1.11,0.54-1.51-0.73-1.71
		c-1.37-0.22-2.71-0.56-4.07-0.86c-21.23-4.74-42.46-9.48-63.68-14.25c-1.17-0.26-1.8-0.1-2.38,1.1
		c-4.89,10.09-9.88,20.14-14.81,30.22c-1.37,2.8-0.88,3.77,2.11,4.46c17.02,3.95,34.04,7.91,51.06,11.86
		C-230.63,50.16-227.22,50.93-224.25,51.61z M-172.97,51.64c0.11-0.02,0.58-0.12,1.04-0.22c5.46-1.26,10.92-2.51,16.38-3.77
		c14.74-3.41,29.47-6.81,44.2-10.23c2.2-0.51,2.86-1.75,1.91-3.7c-5.01-10.24-10.05-20.46-15.05-30.7
		c-0.42-0.87-0.84-1.03-1.81-0.81c-13.89,3.03-27.8,5.99-41.7,8.98c-8.78,1.88-17.55,3.79-26.33,5.65
		c-1.37,0.29-1.86,0.62-0.88,2.01c1.52,2.17,2.84,4.49,4.24,6.74c5.05,8.08,10.11,16.16,15.16,24.25
		C-175.22,50.76-174.67,51.73-172.97,51.64z M-266.3-0.33c4,0.87,7.46,1.6,10.92,2.38c17.43,3.9,34.85,7.82,52.28,11.69
		c1.92,0.42,3.81,1.29,5.85,0.85c5.23-1.12,10.45-2.29,15.68-3.41c13.76-2.96,27.52-5.87,41.27-8.88c2.82-0.62,5.71-1,8.6-2.05
		c-0.26-0.21-0.34-0.33-0.44-0.35c-12.59-2.33-25.18-4.63-37.76-7c-1.39-0.26-2.45-0.27-3.61,0.71c-6.55,5.54-13.99,9.6-21.88,12.89
		c-1.99,0.83-3.84,0.7-5.76-0.13c-9.6-4.13-18.53-9.29-26-16.73c-0.47-0.47-0.86-0.64-1.57-0.44
		C-241.06-7.33-253.41-3.91-266.3-0.33z"/>
	<path class="st5" d="M-151.84-50.54c-0.86,0.03-1.35-0.2-1.57-0.75c-0.27-0.68-0.18-1.39,0.48-1.76c3.31-1.83,6.64-3.63,10-5.37
		c0.72-0.37,1.47-0.03,1.77,0.76c0.33,0.87-0.09,1.51-0.87,1.93c-2.86,1.53-5.72,3.06-8.58,4.58
		C-151.09-50.88-151.57-50.67-151.84-50.54z"/>
	<path class="st5" d="M-155.89-57.27c-1.23-0.06-1.92-1.21-1.23-2.08c1.74-2.22,3.6-4.34,5.45-6.47c0.49-0.57,1.21-0.55,1.8-0.15
		c0.63,0.43,0.82,1.21,0.38,1.75c-1.85,2.28-3.78,4.49-5.72,6.7C-155.38-57.32-155.76-57.32-155.89-57.27z"/>
	<path class="st5" d="M-163.6-62.49c0.29-2.21,0.57-4.42,0.87-6.62c0.13-0.92,0.55-1.7,1.59-1.6c1.02,0.1,1.34,0.89,1.22,1.86
		c-0.29,2.27-0.55,4.54-0.87,6.81c-0.13,0.93-0.62,1.64-1.67,1.48C-163.53-60.73-163.73-61.54-163.6-62.49z"/>
	<path class="st6" d="M-224.25,51.61c-2.97-0.68-6.38-1.44-9.79-2.23c-17.02-3.95-34.04-7.9-51.06-11.86c-3-0.7-3.49-1.66-2.11-4.46
		c4.93-10.07,9.92-20.12,14.81-30.22c0.58-1.2,1.21-1.36,2.38-1.1c21.22,4.77,42.45,9.5,63.68,14.25c1.35,0.3,2.7,0.64,4.07,0.86
		c1.27,0.2,1.43,0.6,0.73,1.71c-4.68,7.39-9.31,14.81-13.95,22.23c-1.95,3.12-3.92,6.23-5.86,9.36
		C-221.93,51.06-222.6,51.78-224.25,51.61z"/>
	<path class="st6" d="M-172.97,51.64c-1.7,0.08-2.25-0.89-2.83-1.82c-5.05-8.08-10.11-16.16-15.16-24.25
		c-1.41-2.25-2.72-4.57-4.24-6.74c-0.98-1.39-0.49-1.72,0.88-2.01c8.78-1.86,17.55-3.77,26.33-5.65c13.9-2.98,27.81-5.95,41.7-8.98
		c0.97-0.21,1.39-0.05,1.81,0.81c5,10.24,10.04,20.46,15.05,30.7c0.95,1.94,0.29,3.19-1.91,3.7c-14.73,3.42-29.47,6.82-44.2,10.23
		c-5.46,1.26-10.92,2.52-16.38,3.77C-172.39,51.53-172.86,51.62-172.97,51.64z"/>
	<path class="st7" d="M-222.34-9.94c-8.1-7.07-13.67-15.44-13.39-26.67c0.37-14.78,14.61-22.94,27.59-15.87
		c2.88,1.57,5.47,3.52,7.8,5.83c2.03,2.02,2.38,2,4.39,0.07c3.97-3.81,8.37-6.91,13.88-8.08c1.67-0.35,3.34-0.49,5.03-0.22
		c1.42,1.11,2.94,2.1,4.23,3.34c5.48,5.21,6.78,11.71,5,18.75c-3.15,12.47-11.09,21.41-21.72,28.19c-3.83,2.44-7.98,3.01-12.46,2.31
		c-3.77-0.59-7.04-2.41-10.53-3.69c-3.16-1.16-6.08-2.9-9.4-3.64c0,0,0,0.01,0,0.01C-222.06-9.72-222.2-9.83-222.34-9.94z
		 M-218.99-50.56c-0.88-0.07-1.84,0.21-2.78,0.67c-4.18,2.05-6.7,7.51-6.84,11.63c-0.08,2.4,1.15,3.53,3.06,3.27
		c1.31-0.18,2.12-1.08,2.85-2.05c1.85-2.49,3.88-4.75,6.75-6.11c1.05-0.5,1.62-1.39,1.8-2.55
		C-213.71-48.43-215.71-50.51-218.99-50.56z"/>
	<path class="st6" d="M-199.88,46.24c0.01,16.42,0.01,32.84,0.06,49.27c0,1.26-0.33,1.48-1.55,1.28
		c-18.5-3.01-37.01-5.97-55.52-8.95c-3.81-0.61-7.62-1.21-11.43-1.84c-2.26-0.37-2.81-1.01-2.8-3.41
		c0.02-10.26,0.06-20.53,0.1-30.79c2.43,0.43,4.85,0.83,7.27,1.28c14.76,2.74,29.51,5.47,44.26,8.23c5.5,1.03,9.06,0.73,12.82-5.32
		C-204.58,52.63-202.39,49.32-199.88,46.24z"/>
	<path class="st6" d="M-125.96,75.21c0.02,2.54,0.05,5.07,0.05,7.61c0,2.15-0.56,2.84-2.62,3.17c-5.47,0.88-10.95,1.73-16.43,2.62
		c-13.75,2.22-27.49,4.44-41.24,6.66c-3.15,0.51-6.31,1-9.46,1.57c-1.08,0.2-1.36-0.15-1.35-1.19c0.04-16.85,0.06-33.69,0.08-50.54
		c0.59,0.41,1.2,0.81,1.77,1.24c13.73,10.42,29.02,17.69,45.57,22.34C-141.72,70.91-133.83,73.04-125.96,75.21z"/>
	<path class="st8" d="M-125.96,75.21c-7.88-2.17-15.76-4.3-23.62-6.51c-16.56-4.65-31.84-11.92-45.57-22.34
		c-0.57-0.44-1.18-0.83-1.77-1.24c-0.01-5.07-0.02-10.14-0.03-15.21c0-0.48,0.04-0.97-0.02-1.45c-0.11-0.89-0.6-1.49-1.54-1.43
		c-0.83,0.06-1.28,0.64-1.31,1.47c-0.03,1.15-0.01,2.29-0.02,3.44c-0.01,4.77-0.03,9.53-0.04,14.3c-2.51,3.08-4.7,6.4-6.79,9.76
		c-3.76,6.05-7.33,6.35-12.82,5.32c-14.75-2.77-29.51-5.5-44.26-8.23c-2.42-0.45-4.85-0.86-7.27-1.28c-0.05-2.05-0.02-4.1-0.16-6.14
		c-0.11-1.59,0.56-1.88,1.92-1.56c3.68,0.88,7.38,1.74,11.07,2.59c11.01,2.55,22.02,5.11,33.04,7.65c2.71,0.63,4.54-0.07,6.03-2.43
		c6.43-10.19,12.83-20.41,19.24-30.62c0.16-0.26,0.35-0.49,0.48-0.76c0.6-1.24,1.13-1.32,1.91-0.07
		c3.96,6.41,7.97,12.78,11.96,19.18c2.52,4.04,5.01,8.1,7.55,12.12c1.53,2.43,3.57,3.22,6.36,2.57c14.7-3.41,29.4-6.82,44.11-10.23
		c0.89-0.21,1.66-0.54,1.64,1.05C-125.96,55.17-125.94,65.19-125.96,75.21z"/>
	<path class="st8" d="M-266.3-0.33c12.89-3.58,25.24-7,37.58-10.46c0.71-0.2,1.11-0.03,1.57,0.44c7.47,7.43,16.4,12.6,26,16.73
		c1.92,0.83,3.77,0.96,5.76,0.13c7.89-3.29,15.33-7.35,21.88-12.89c1.16-0.98,2.23-0.97,3.61-0.71c12.58,2.38,25.17,4.68,37.76,7
		c0.1,0.02,0.18,0.13,0.44,0.35c-2.89,1.05-5.79,1.43-8.6,2.05c-13.74,3.01-27.51,5.92-41.27,8.88c-5.23,1.12-10.45,2.29-15.68,3.41
		c-2.04,0.44-3.93-0.42-5.85-0.85c-17.44-3.87-34.86-7.79-52.28-11.69C-258.84,1.28-262.3,0.54-266.3-0.33z"/>
	<path class="st9" d="M-221.92-9.62c3.31,0.74,6.24,2.49,9.4,3.64c3.49,1.28,6.76,3.1,10.53,3.69c4.48,0.7,8.63,0.13,12.46-2.31
		c10.63-6.78,18.57-15.72,21.72-28.19c1.78-7.04,0.48-13.54-5-18.75c-1.3-1.23-2.82-2.23-4.23-3.34c5.95-0.18,12.35,4.4,14.88,10.58
		c3.4,8.29,1.8,16.09-2.47,23.51c-4.86,8.45-12.26,14.27-20.54,19.09c-3.23,1.88-6.6,3.48-10,5.04c-1.94,0.89-3.64,0.98-5.67,0.06
		c-7-3.16-13.71-6.77-19.72-11.6C-221.08-8.62-221.66-8.97-221.92-9.62z"/>
	<path class="st9" d="M-222.34-9.94c0.14,0.11,0.29,0.21,0.43,0.32C-222.06-9.72-222.2-9.83-222.34-9.94z"/>
	<path class="st10" d="M-218.99-50.56c3.28,0.05,5.28,2.13,4.84,4.86c-0.18,1.15-0.75,2.05-1.8,2.55c-2.87,1.36-4.91,3.62-6.75,6.11
		c-0.73,0.98-1.53,1.87-2.85,2.05c-1.92,0.26-3.15-0.87-3.06-3.27c0.14-4.12,2.66-9.58,6.84-11.63
		C-220.83-50.35-219.87-50.63-218.99-50.56z"/>
</g>
<g>
	<path class="st11" d="M117.25,9.46c1.12,0.31,2.25,0.58,3.36,0.94c10.57,3.35,16.21,14.47,12.81,25.28
		c-1.82,5.77-5.19,10.61-9.14,15.07c-5.25,5.93-11.33,10.87-18.16,14.89c-3.89,2.29-7.73,2.37-11.65,0.06
		c-9.13-5.38-17.02-12.15-23.02-20.95c-3.32-4.86-5.72-10.09-5.47-16.19c0.36-8.9,6.33-16.23,15-18.47
		c0.59-0.15,1.35,0.02,1.78-0.63c1.69,0,3.39,0,5.08,0c0.07,0.09,0.13,0.25,0.21,0.26c4.44,0.39,8.19,2.27,11.36,5.34
		c0.68,0.65,1.02,0.48,1.58-0.08c2.21-2.22,4.89-3.68,7.84-4.66c0.76-0.25,1.65-0.18,2.25-0.85C113.13,9.46,115.19,9.46,117.25,9.46
		z M71.44,29.24c-0.07,3.44,1.12,6.54,2.79,9.45c5.53,9.66,13.59,16.72,23.07,22.3c2.03,1.19,3.94,1.16,5.97-0.02
		c5.8-3.37,11-7.47,15.56-12.37c4.1-4.41,7.73-9.17,9.5-15.05c2.08-6.89-1.03-14.05-7.34-17.15c-6.38-3.14-13.78-1.25-18.07,4.59
		c-1.93,2.63-3.58,2.62-5.53-0.02c-3.78-5.14-10.03-7.23-15.9-5.34C75.41,17.59,71.48,22.92,71.44,29.24z"/>
	<path class="st11" d="M39.41,152.22c-0.64,2.28-1.16,2.69-3.58,2.7c-3.45,0.02-6.9,0.04-10.34,0c-5.87-0.08-9.74-3.94-9.88-9.81
		c-0.06-2.57,0.47-5.05,1.24-7.48c2.1-6.68,6.14-12.81,11.53-17.47c-9.24-6.45-14.7-15.2-15.64-26.47
		c-0.72-8.64,1.4-16.66,6.09-23.97c8.7-13.56,25.86-19.48,41.39-14.41c15.04,4.91,28.62,22.04,24.47,42.2
		c10.3-4.38,20.6-4.38,31.08,0.03c-0.39-2.49-0.75-4.96-0.75-7.47c-0.02-18.16,13.93-34.03,31.92-36.27
		c19.21-2.38,36.63,10.39,40.04,29.5c2.64,14.8-1.92,26.92-13.99,36.04c-1.07,0.81-0.77,1.01,0.01,1.74
		c6.46,6,10.54,13.34,11.66,22.12c0.9,7.07-3.35,11.7-10.44,11.7c-4.17,0-8.35,0.01-12.52,0c-2.48-0.01-3.05-0.45-3.78-2.77
		c0.43-1.99,1.67-2.72,3.67-2.69c4.42,0.07,8.83,0.03,13.25,0.02c3.19-0.01,4.33-1.15,4.19-4.26c-0.4-8.82-4.24-15.84-11.17-21.25
		c-0.86-0.67-1.55-0.73-2.59-0.3c-5.93,2.44-12.09,3.26-18.47,2.46c-3.74-0.47-7.29-1.53-10.88-3.1c1.55,9.38,0.23,18.13-4.46,26.43
		c5.48,0,10.68-0.02,15.88,0.01c2.25,0.01,2.84,0.51,3.39,2.7c-0.5,2.21-1.14,2.74-3.53,2.75c-6.11,0.02-12.22,0.03-18.33-0.02
		c-1.12-0.01-1.92,0.27-2.68,1.12c-1.57,1.76-3.47,3.18-5.42,4.64c6,5.06,9.77,11.46,11.85,18.89c0.67,2.4,0.97,4.85,0.68,7.35
		c-0.59,4.99-4.21,8.44-9.24,8.46c-15.91,0.05-31.83,0.05-47.74,0c-5.18-0.01-8.78-3.46-9.25-8.59c-0.3-3.26,0.29-6.39,1.36-9.43
		c2.28-6.49,5.68-12.25,11.18-16.68c-2.17-1.63-4.26-3.28-6.04-5.27c-0.58-0.66-1.33-0.48-2.03-0.48c-7.08-0.01-14.16,0-21.24-0.01
		c-2.54,0-3.08-0.41-3.8-2.72c0.36-2.02,1.58-2.75,3.6-2.73c6.21,0.07,12.42,0.02,18.86,0.02c-4.77-8.37-6.05-17.13-4.51-26.44
		c-0.36,0.12-0.59,0.17-0.8,0.26c-9.59,4.07-19.23,4.22-28.88,0.23c-0.98-0.41-1.57-0.07-2.25,0.45c-7,5.43-10.84,12.51-11.18,21.41
		c-0.11,2.77,1.1,4.02,3.86,4.04c3.57,0.03,7.14,0,10.71,0.01C38.36,149.48,38.82,149.85,39.41,152.22z M103.4,167.02
		c-3.08,0.01-6.16,0.09-9.2-0.51c-0.64-0.13-0.82,0.08-0.92,0.7c-0.64,3.75,1.64,7.37,5.41,8.49c4.28,0.57,7.17-1.35,8.14-5.42
		C107.7,166.59,107.13,166.05,103.4,167.02z M127.01,115.9c0.07,0.07,0.19,0.21,0.2,0.2c0.21-0.14,0.13-0.27-0.05-0.37
		c-0.98-2.67-2.72-4.83-4.68-6.82c-9.24-9.4-24.93-11.68-37.15-5.45c-5.5,2.8-9.66,6.89-12.54,12.79c1.17-0.39,2.01-0.67,2.84-0.95
		c1.6-0.54,3.17-1.2,4.87-1.35c2.75-0.25,3.68,0.56,3.73,3.28c0.04,2.05,0.88,2.72,2.89,2.19c1.55-0.41,2.82-1.35,4.01-2.4
		c0.91-0.8,1.9-1,3.01-0.45c1.07,0.54,1.64,1.39,1.64,2.6c0,0.3-0.01,0.61,0.01,0.91c0.12,2.18,1.21,2.87,3.1,1.82
		c2.72-1.51,4.25-3.96,4.72-6.96c0.31-1.98,1.46-2.64,3.19-2.78c2.62-0.22,5.18,0.13,7.75,0.59
		C118.78,113.52,122.83,114.97,127.01,115.9z M80.61,123.01c-0.33-0.5-0.79-0.97-0.95-1.52c-0.42-1.45-1.24-1.45-2.44-0.96
		c-1.84,0.75-3.7,1.46-5.6,2.05c-1.3,0.4-1.73,1.27-1.93,2.48c-1.48,8.74,0.35,16.74,5.65,23.81c5.99,8,13.97,12.44,24.11,12.64
		c18.99,1.22,35.45-18.31,31.15-36.94c-0.23-0.99-0.72-1.49-1.64-1.89c-6.14-2.68-12.6-4.08-19.21-4.95c-1-0.13-1.17,0.38-1.44,1.11
		c-1.52,3.98-4.24,6.85-8.23,8.4c-3.51,1.36-6.24,0.54-8.39-2.51c-0.51-0.73-0.85-0.88-1.71-0.54
		C86.65,125.52,83.48,125.37,80.61,123.01z M47.89,120.89c9.1-0.09,17.31-1.92,22.31-10.68c1.59-2.78,3.83-5.14,6.3-7.21
		c0.57-0.48,0.96-1.03,1.23-1.74c1.73-4.42,2.32-8.98,2.05-13.7c-0.07-1.24-0.46-1.82-1.84-2.08c-9.58-1.77-18.69-4.8-26.76-10.49
		c-1.49-1.05-3.12-1.07-4.58-0.01c-5.25,3.82-11.16,6.2-17.24,8.27c-3.31,0.9-6.63,1.82-10.03,2.36c-0.88,0.14-1.19,0.44-1.26,1.35
		c-0.37,5.21,0.28,10.24,2.28,15.08C25.03,113.25,36.71,121.26,47.89,120.89z M150.65,120.89c2.38,0.2,4.72-0.11,7.01-0.7
		c12.41-3.17,20.86-10.5,24.05-23.21c0.48-1.92,0.72-3.81-0.15-5.83c-3.94-9.17-15.4-14.78-25.35-12.19
		c-3.2,0.83-6.29,0.82-9.46-0.13c-5.06-1.52-9.91-0.67-14.61,1.51c-3.02,1.2-5.52,3.14-7.77,5.46c-4.17,4.29-4.27,9.15-2.15,14.37
		c0.43,1.06,0.76,2.1,1.71,2.9c3.61,3.01,6.43,6.67,8.59,10.85c0.28,0.54,0.57,1.03,1.09,1.41
		C138.7,119.01,144.33,120.99,150.65,120.89z M100.09,189.91c0,0.01,0,0.02,0,0.02c7.5,0,15.01,0,22.51,0c4.18,0,5.76-1.48,5.2-5.6
		c-1.07-7.89-4.46-14.58-10.86-19.61c-1.31-1.03-2.31-0.71-3.59-0.21c-1.4,0.54-0.68,1.61-0.78,2.46c-0.09,0.78-0.01,1.57-0.07,2.36
		c-0.73,9.84-11.1,15.32-19.06,10.02c-4.55-3.03-5.87-7.59-5.68-12.79c0.03-0.72,0.43-1.63-0.7-1.96c-1.08-0.31-1.96-1.11-3.3-0.12
		c-4.73,3.46-7.66,8.14-9.69,13.5c-0.93,2.44-1.67,4.93-1.57,7.58c0.11,3.07,1.45,4.35,4.53,4.35
		C84.72,189.91,92.41,189.91,100.09,189.91z M78.08,80.02c-3.51-11.04-15.32-22.14-32.04-20.84c-11.52,0.9-24.52,11.04-26.13,20.79
		c8.09-1.68,15.79-4.2,22.65-8.82c4.65-3.14,8.08-3.15,12.66-0.03C62.07,75.78,69.79,78.26,78.08,80.02z M122.81,79.3
		c0.36-0.23,0.67-0.41,0.95-0.61c7.64-5.49,15.97-7.5,25.19-4.97c1.93,0.53,3.8,0.4,5.72-0.05c8.92-2.08,16.98-0.08,24.29,5.28
		c0.41,0.3,0.69,0.84,1.32,0.8c-1.82-8.05-12.46-20.46-28.54-20.6C135.78,59.01,124.87,71.02,122.81,79.3z"/>
	<path class="st12" d="M39.41,152.22c-0.6-2.37-1.05-2.74-3.5-2.75c-3.57-0.02-7.14,0.02-10.71-0.01c-2.76-0.02-3.97-1.27-3.86-4.04
		c0.34-8.9,4.18-15.98,11.18-21.41c0.68-0.53,1.27-0.86,2.25-0.45c9.65,3.99,19.28,3.84,28.88-0.23c0.22-0.09,0.45-0.15,0.8-0.26
		c-1.54,9.31-0.26,18.08,4.51,26.44c-6.45,0-12.65,0.04-18.86-0.02c-2.02-0.02-3.24,0.71-3.6,2.73
		C44.14,152.21,41.78,152.21,39.41,152.22z"/>
	<path class="st12" d="M150.73,152.17c-0.55-2.19-1.14-2.69-3.39-2.7c-5.2-0.02-10.4-0.01-15.88-0.01
		c4.69-8.3,6.01-17.06,4.46-26.43c3.59,1.57,7.14,2.63,10.88,3.1c6.39,0.8,12.54-0.03,18.47-2.46c1.04-0.43,1.73-0.37,2.59,0.3
		c6.93,5.41,10.77,12.43,11.17,21.25c0.14,3.11-1.01,4.25-4.19,4.26c-4.42,0.02-8.84,0.06-13.25-0.02c-2-0.03-3.25,0.7-3.67,2.69
		C155.52,152.16,153.12,152.16,150.73,152.17z"/>
	<path class="st13" d="M71.44,29.24c0.04-6.33,3.97-11.65,10.05-13.61c5.87-1.9,12.12,0.2,15.9,5.34c1.95,2.65,3.6,2.65,5.53,0.02
		c4.29-5.85,11.69-7.73,18.07-4.59c6.31,3.11,9.41,10.26,7.34,17.15c-1.77,5.88-5.39,10.63-9.5,15.05
		c-4.56,4.9-9.76,9.01-15.56,12.37c-2.03,1.18-3.95,1.21-5.97,0.02c-9.48-5.59-17.54-12.65-23.07-22.3
		C72.56,35.78,71.36,32.69,71.44,29.24z"/>
	<path class="st14" d="M132.14,80.35c4.69-2.19,9.55-3.03,14.61-1.51c3.16,0.95,6.25,0.97,9.46,0.13
		c9.96-2.6,21.41,3.02,25.35,12.19c0.87,2.02,0.63,3.91,0.15,5.83c-3.19,12.72-11.64,20.04-24.05,23.21
		c-2.28,0.58-4.63,0.9-7.01,0.7c-7.59-6.3-13.41-13.86-16.72-23.24c0.66-1.86,0.46-3.78,0.27-5.67c-0.12-1.19-0.77-2.13-2.06-2.43
		C132.05,86.49,131.44,83.42,132.14,80.35z M152.15,101.07c2.05-0.06,4.56-0.95,6.45-3.13c1.05-1.21,1.06-2.56-0.01-3.78
		c-1.01-1.16-2.23-1.01-3.44-0.31c-0.31,0.18-0.61,0.39-0.92,0.59c-2.72,1.77-3.52,1.72-6.08-0.36c-1.34-1.08-2.76-1.04-3.87,0.12
		c-1.14,1.19-1.13,2.51,0.14,3.85C146.3,100.02,148.62,101.05,152.15,101.07z M174.11,94.36c-0.06-0.74-0.09-1.53-0.2-2.31
		c-0.21-1.48-0.92-2.49-2.58-2.45c-1.57,0.04-2.49,0.89-2.7,2.4c-0.22,1.62-0.23,3.26,0.18,4.86c0.32,1.25,1.11,1.98,2.47,1.93
		c1.37-0.04,2.3-0.73,2.61-2.06C174.08,95.99,174.04,95.19,174.11,94.36z"/>
	<path class="st14" d="M29.38,83.26c6.08-2.07,11.99-4.46,17.24-8.27c1.46-1.06,3.09-1.04,4.58,0.01
		c8.06,5.69,17.18,8.72,26.76,10.49c1.38,0.25,1.76,0.83,1.84,2.08c0.27,4.71-0.32,9.28-2.05,13.7c-0.28,0.71-0.67,1.26-1.23,1.74
		c-2.47,2.08-4.71,4.43-6.3,7.21c-5.01,8.76-13.22,10.59-22.31,10.68c-2.46-2.56-5.22-4.8-7.51-7.55c-3.96-4.74-6.98-9.95-8.93-15.8
		c0.52-1.83,0.46-3.68,0.18-5.55c-0.18-1.17-0.73-2.02-1.9-2.39C29.17,87.51,29.42,85.37,29.38,83.26z M47.62,101.05
		c3.52,0.07,5.64-0.71,7.51-2.16c1.76-1.37,2.15-3.13,1.08-4.56c-0.97-1.31-2.32-1.31-4.32-0.02c-3,1.94-3.64,1.91-6.38-0.29
		c-1.26-1.01-2.62-0.96-3.72,0.14c-1.09,1.09-1.15,2.5-0.07,3.71C43.59,99.94,45.94,101.02,47.62,101.05z M71.5,94.5
		c0.01,0,0.03,0,0.04,0c-0.04-0.78,0-1.58-0.13-2.35c-0.25-1.51-0.94-2.62-2.71-2.54c-1.55,0.07-2.57,1.12-2.64,2.85
		c-0.05,1.08-0.06,2.18,0.01,3.26c0.14,2.11,1.11,3.16,2.77,3.09c1.66-0.07,2.6-1.21,2.66-3.22C71.51,95.22,71.5,94.86,71.5,94.5z"
		/>
	<path class="st14" d="M80.61,123.01c2.87,2.36,6.05,2.51,9.35,1.18c0.86-0.35,1.2-0.19,1.71,0.54c2.15,3.05,4.88,3.87,8.39,2.51
		c3.99-1.55,6.71-4.42,8.23-8.4c0.28-0.72,0.44-1.24,1.44-1.11c6.61,0.87,13.07,2.27,19.21,4.95c0.92,0.4,1.41,0.9,1.64,1.89
		c4.3,18.63-12.16,38.16-31.15,36.94c-3.04-2.47-5.83-5.21-8.33-8.23c-3.72-4.51-6.45-9.58-8.45-15.06
		c0.63-1.73,0.47-3.51,0.31-5.28c-0.12-1.33-0.71-2.37-2.05-2.84C80.68,127.73,80.43,125.38,80.61,123.01z M100.84,141.67
		c2.2-0.21,4.74-1.01,6.57-3.27c0.96-1.18,0.92-2.49-0.08-3.64c-1-1.16-2.22-1.01-3.45-0.34c-0.32,0.17-0.61,0.39-0.91,0.59
		c-2.76,1.8-3.52,1.76-6.09-0.33c-1.35-1.1-2.74-1.07-3.87,0.09c-1.14,1.17-1.13,2.54,0.11,3.85
		C95.05,140.63,97.43,141.66,100.84,141.67z M122.69,134.94c0.03,0,0.07,0,0.1,0c-0.06-0.84-0.03-1.7-0.18-2.53
		c-0.26-1.4-1.1-2.33-2.61-2.26c-1.42,0.07-2.46,0.88-2.63,2.3c-0.21,1.67-0.28,3.37,0.18,5.04c0.36,1.28,1.2,1.98,2.5,1.91
		c1.42-0.07,2.39-0.85,2.62-2.29C122.79,136.4,122.69,135.66,122.69,134.94z"/>
	<path class="st12" d="M100.09,189.91c-7.69,0-15.37,0-23.06,0c-3.09,0-4.42-1.28-4.53-4.35c-0.1-2.65,0.65-5.14,1.57-7.58
		c2.03-5.35,4.96-10.03,9.69-13.5c1.35-0.99,2.22-0.2,3.3,0.12c1.13,0.33,0.73,1.24,0.7,1.96c-0.19,5.2,1.14,9.76,5.68,12.79
		c7.96,5.3,18.33-0.18,19.06-10.02c0.06-0.78-0.02-1.58,0.07-2.36c0.1-0.85-0.63-1.91,0.78-2.46c1.28-0.5,2.28-0.82,3.59,0.21
		c6.39,5.03,9.79,11.71,10.86,19.61c0.56,4.12-1.02,5.6-5.2,5.6c-7.5,0-15.01,0-22.51,0C100.09,189.93,100.09,189.92,100.09,189.91z
		"/>
	<path class="st13" d="M127.01,115.9c-4.18-0.93-8.23-2.38-12.45-3.15c-2.57-0.46-5.14-0.81-7.75-0.59
		c-1.73,0.15-2.87,0.81-3.19,2.78c-0.47,2.99-2,5.45-4.72,6.96c-1.89,1.05-2.98,0.36-3.1-1.82c-0.02-0.3-0.01-0.61-0.01-0.91
		c0-1.21-0.56-2.07-1.64-2.6c-1.11-0.56-2.11-0.35-3.01,0.45c-1.19,1.05-2.46,1.99-4.01,2.4c-2.01,0.53-2.85-0.14-2.89-2.19
		c-0.05-2.71-0.97-3.52-3.73-3.28c-1.71,0.15-3.27,0.81-4.87,1.35c-0.83,0.28-1.67,0.56-2.84,0.95c2.88-5.9,7.04-9.99,12.54-12.79
		c12.23-6.23,27.91-3.95,37.15,5.45c1.95,1.99,3.69,4.15,4.68,6.82C127.11,115.79,127.06,115.85,127.01,115.9z"/>
	<path class="st15" d="M78.08,80.02c-8.29-1.76-16.01-4.24-22.86-8.9c-4.59-3.12-8.01-3.11-12.66,0.03
		c-6.86,4.63-14.56,7.14-22.65,8.82c1.61-9.74,14.61-19.89,26.13-20.79C62.76,57.88,74.57,68.98,78.08,80.02z"/>
	<path class="st13" d="M122.81,79.3c2.06-8.28,12.97-20.29,28.94-20.15c16.09,0.14,26.73,12.54,28.54,20.6
		c-0.63,0.04-0.91-0.5-1.32-0.8c-7.32-5.37-15.37-7.36-24.29-5.28c-1.92,0.45-3.79,0.58-5.72,0.05c-9.21-2.52-17.55-0.52-25.19,4.97
		C123.48,78.89,123.17,79.07,122.81,79.3z"/>
	<path class="st15" d="M82.66,138.21c2,5.48,4.73,10.56,8.45,15.06c2.5,3.02,5.28,5.76,8.33,8.23c-10.14-0.2-18.12-4.64-24.11-12.64
		c-5.3-7.07-7.12-15.07-5.65-23.81c0.21-1.21,0.64-2.08,1.93-2.48c1.9-0.59,3.76-1.3,5.6-2.05c1.2-0.49,2.02-0.49,2.44,0.96
		c0.16,0.55,0.62,1.02,0.95,1.52c-0.18,2.37,0.07,4.72,0.32,7.08c-2.65,0.3-3.28,0.99-3.33,3.67c-0.01,0.78-0.01,1.56,0.02,2.34
		c0.06,1.3,0.26,2.54,1.66,3.12C80.67,139.79,81.7,139.11,82.66,138.21z"/>
	<path class="st15" d="M29.38,83.26c0.04,2.12-0.21,4.25,0.36,6.34c-2.58,0.12-3.31,0.82-3.41,3.33c-0.04,0.9-0.01,1.8,0.04,2.69
		c0.07,1.3,0.32,2.57,1.75,3.06c1.36,0.46,2.44-0.13,3.34-1.15c1.94,5.85,4.96,11.06,8.93,15.8c2.3,2.75,5.06,4.99,7.51,7.55
		c-11.18,0.37-22.86-7.64-27.52-18.85c-2.01-4.84-2.65-9.88-2.28-15.08c0.06-0.91,0.37-1.2,1.26-1.35
		C22.75,85.07,26.06,84.16,29.38,83.26z"/>
	<path class="st15" d="M133.93,97.66c3.31,9.38,9.13,16.94,16.72,23.24c-6.31,0.1-11.95-1.88-17.03-5.56
		c-0.52-0.37-0.81-0.87-1.09-1.41c-2.16-4.17-4.98-7.83-8.59-10.85c-0.95-0.8-1.28-1.84-1.71-2.9c-2.12-5.22-2.02-10.08,2.15-14.37
		c2.25-2.32,4.75-4.25,7.77-5.46c-0.69,3.07-0.09,6.14,0.01,9.21c-2.54,0.25-3.24,1-3.28,3.53c-0.01,0.78-0.03,1.57,0.01,2.35
		c0.07,1.3,0.27,2.59,1.64,3.17C131.86,99.19,132.96,98.59,133.93,97.66z"/>
	<path class="st13" d="M98.69,175.69c-3.77-1.12-6.05-4.73-5.41-8.49c0.1-0.61,0.28-0.83,0.92-0.7c3.04,0.6,6.12,0.52,9.2,0.51
		c0.07,0.71-0.56,1.01-0.87,1.49C101.07,170.81,99.06,172.81,98.69,175.69z"/>
	<path class="st15" d="M98.69,175.69c0.37-2.88,2.38-4.88,3.84-7.17c0.31-0.49,0.94-0.79,0.87-1.49c3.73-0.97,4.3-0.43,3.42,3.25
		C105.86,174.34,102.97,176.27,98.69,175.69z"/>
	<path class="st13" d="M127.16,115.74c0.17,0.1,0.26,0.23,0.05,0.37c-0.01,0.01-0.13-0.13-0.2-0.2
		C127.06,115.85,127.11,115.79,127.16,115.74z"/>
	<path class="st11" d="M152.15,101.07c-3.53-0.02-5.85-1.05-7.73-3.03c-1.27-1.34-1.29-2.65-0.14-3.85c1.11-1.16,2.53-1.2,3.87-0.12
		c2.56,2.08,3.37,2.12,6.08,0.36c0.3-0.2,0.6-0.4,0.92-0.59c1.22-0.7,2.43-0.85,3.44,0.31c1.07,1.22,1.06,2.57,0.01,3.78
		C156.71,100.12,154.2,101,152.15,101.07z"/>
	<path class="st11" d="M174.11,94.36c-0.06,0.82-0.03,1.63-0.21,2.38c-0.31,1.33-1.24,2.01-2.61,2.06
		c-1.36,0.04-2.15-0.68-2.47-1.93c-0.41-1.6-0.4-3.24-0.18-4.86c0.21-1.51,1.13-2.36,2.7-2.4c1.66-0.04,2.37,0.96,2.58,2.45
		C174.02,92.83,174.05,93.62,174.11,94.36z"/>
	<path class="st11" d="M133.93,97.66c-0.97,0.94-2.07,1.53-3.41,0.96c-1.37-0.58-1.57-1.88-1.64-3.17
		c-0.04-0.78-0.02-1.57-0.01-2.35c0.04-2.54,0.74-3.29,3.28-3.53c1.28,0.3,1.94,1.24,2.06,2.43
		C134.39,93.88,134.59,95.8,133.93,97.66z"/>
	<path class="st11" d="M47.62,101.05c-1.68-0.02-4.03-1.1-5.9-3.18c-1.08-1.21-1.02-2.62,0.07-3.71c1.1-1.1,2.46-1.15,3.72-0.14
		c2.74,2.2,3.39,2.22,6.38,0.29c2-1.29,3.35-1.28,4.32,0.02c1.06,1.43,0.68,3.19-1.08,4.56C53.26,100.33,51.15,101.12,47.62,101.05z
		"/>
	<path class="st11" d="M31.45,97.53c-0.9,1.01-1.98,1.6-3.34,1.15c-1.43-0.48-1.67-1.76-1.75-3.06c-0.05-0.9-0.08-1.8-0.04-2.69
		c0.11-2.52,0.83-3.21,3.41-3.33c1.17,0.37,1.72,1.22,1.9,2.39C31.92,93.85,31.98,95.7,31.45,97.53z"/>
	<path class="st11" d="M71.5,94.5c0,0.36,0.01,0.72,0,1.09c-0.06,2-1,3.15-2.66,3.22c-1.66,0.07-2.63-0.97-2.77-3.09
		c-0.07-1.08-0.06-2.17-0.01-3.26c0.07-1.73,1.09-2.78,2.64-2.85c1.77-0.08,2.46,1.03,2.71,2.54c0.13,0.77,0.09,1.56,0.13,2.35
		C71.52,94.5,71.51,94.5,71.5,94.5z"/>
	<path class="st11" d="M100.84,141.67c-3.41-0.01-5.78-1.04-7.71-3.06c-1.24-1.3-1.25-2.67-0.11-3.85c1.13-1.16,2.52-1.19,3.87-0.09
		c2.57,2.09,3.32,2.13,6.09,0.33c0.3-0.2,0.6-0.41,0.91-0.59c1.22-0.67,2.45-0.82,3.45,0.34c1,1.15,1.03,2.46,0.08,3.64
		C105.58,140.66,103.03,141.47,100.84,141.67z"/>
	<path class="st11" d="M122.69,134.94c0,0.72,0.09,1.46-0.02,2.17c-0.23,1.45-1.21,2.22-2.62,2.29c-1.3,0.07-2.14-0.63-2.5-1.91
		c-0.46-1.67-0.39-3.37-0.18-5.04c0.18-1.42,1.21-2.23,2.63-2.3c1.51-0.07,2.34,0.85,2.61,2.26c0.15,0.82,0.13,1.68,0.18,2.53
		C122.76,134.93,122.73,134.94,122.69,134.94z"/>
	<path class="st11" d="M82.66,138.21c-0.96,0.9-1.99,1.58-3.38,1c-1.4-0.58-1.6-1.83-1.66-3.12c-0.03-0.78-0.04-1.56-0.02-2.34
		c0.05-2.67,0.68-3.36,3.33-3.67c1.34,0.48,1.93,1.52,2.05,2.84C83.13,134.7,83.29,136.48,82.66,138.21z"/>
</g>
</svg>
